<?xml version="1.0" encoding="UTF-8"?>
<svg xmlns="http://www.w3.org/2000/svg" viewBox="320 0 300 320">
  <style>
    text {
      font-family: Helvetica, Arial, sans-serif;
    }

    .relationship text {
      fill: white;
    }

    .node circle {
      stroke-width: 0;
    }
  </style>
  <g class="layer relationships">
    <g class="relationship">
      <path fill="#D4D6D7" stroke="none"
            d="M 0 0.5 L 16.09300317358864 0.5 L 16.09300317358864 -0.5 L 0 -0.5 Z M 61.09300317358864 0.5 L 77.18600634717728 0.5 L 77.18600634717728 3.5 L 84.18600634717728 0 L 77.18600634717728 -3.5 L 77.18600634717728 -0.5 L 61.09300317358864 -0.5 Z"
            transform="translate(490.50288120999744 174.0373314606605) rotate(29.97007088306496)"></path>
      <text text-anchor="middle" font-size="8px" fill="#000000" x="523.9354775584127" y="196.3163717728896"
            transform="rotate(29.97007088306496 523.9354775584127 193.3163717728896)">ACTED_IN
      </text>
      <rect class="overlay" fill="yellow" x="0" y="-10" height="20" opacity="0" width="84.18600634717728"
            transform="translate(490.50288120999744 174.0373314606605) rotate(29.97007088306496)"></rect>
    </g>
    <g class="relationship">
      <path fill="#D4D6D7" stroke="none"
            d="M 0 0.5 L 13.680272397696058 0.5 L 13.680272397696058 -0.5 L 0 -0.5 Z M 60.68027239769606 0.5 L 74.36054479539212 0.5 L 74.36054479539212 3.5 L 81.36054479539212 0 L 74.36054479539212 -3.5 L 74.36054479539212 -0.5 L 60.68027239769606 -0.5 Z"
            transform="translate(488.30976029957617 272.697797199925) rotate(-24.505839705186244)"></path>
      <text text-anchor="middle" font-size="8px" fill="#000000" x="522.1407965701646" y="260.27594126670465"
            transform="rotate(-24.505839705186244 522.1407965701646 257.27594126670465)">DIRECTED
      </text>
      <rect class="overlay" fill="yellow" x="0" y="-10" height="20" opacity="0" width="81.36054479539212"
            transform="translate(488.30976029957617 272.697797199925) rotate(-24.505839705186244)"></rect>
    </g>
    <g class="relationship">
      <path fill="#D4D6D7" stroke="none"
            d="M 0 0.5 L 14.305656091580502 0.5 L 14.305656091580502 -0.5 L 0 -0.5 Z M 59.3056560915805 0.5 L 73.611312183161 0.5 L 73.611312183161 3.5 L 80.611312183161 0 L 73.611312183161 -3.5 L 73.611312183161 -0.5 L 59.3056560915805 -0.5 Z"
            transform="translate(489.33040663405984 147.21764143931486) rotate(-34.976474584507756)"></path>
      <text text-anchor="middle" font-size="8px" fill="#000000" x="519.4885005537836" y="129.11916539338176"
            transform="rotate(-34.976474584507756 519.4885005537836 126.11916539338176)">ACTED_IN
      </text>
      <rect class="overlay" fill="yellow" x="0" y="-10" height="20" opacity="0" width="80.611312183161"
            transform="translate(489.33040663405984 147.21764143931486) rotate(-34.976474584507756)"></rect>
    </g>
    <g class="relationship">
      <path fill="#D4D6D7" stroke="none"
            d="M 0 0.5 L 6.696459872217517 0.5 L 6.696459872217517 -0.5 L 0 -0.5 Z M 53.69645987221752 0.5 L 60.392919744435034 0.5 L 60.392919744435034 3.5 L 67.39291974443503 0 L 60.392919744435034 -3.5 L 60.392919744435034 -0.5 L 53.69645987221752 -0.5 Z"
            transform="translate(492.3167073711213 47.233361536041095) rotate(25.27174701685249)"></path>
      <text text-anchor="middle" font-size="8px" fill="#000000" x="519.6231598864933" y="63.12459265801611"
            transform="rotate(25.27174701685249 519.6231598864933 60.12459265801611)">DIRECTED
      </text>
      <rect class="overlay" fill="yellow" x="0" y="-10" height="20" opacity="0" width="67.39291974443503"
            transform="translate(492.3167073711213 47.233361536041095) rotate(25.27174701685249)"></rect>
    </g>
    <g class="relationship">
      <path fill="#D4D6D7" stroke="none"
            d="M 0 0.5 L 12.401328210700598 0.5 L 12.401328210700598 -0.5 L 0 -0.5 Z M 57.4013282107006 0.5 L 69.8026564214012 0.5 L 69.8026564214012 3.5 L 76.8026564214012 0 L 69.8026564214012 -3.5 L 69.8026564214012 -0.5 L 57.4013282107006 -0.5 Z"
            transform="translate(447.043184968498 149.31551196182582) rotate(-150.70375967792995)"></path>
      <text text-anchor="middle" font-size="8px" fill="#000000" x="416.60568835960447" y="135.2374116267581"
            transform="rotate(29.296240322070048 416.60568835960447 132.2374116267581)">ACTED_IN
      </text>
      <rect class="overlay" fill="yellow" x="0" y="-10" height="20" opacity="0" width="76.8026564214012"
            transform="translate(447.043184968498 149.31551196182582) rotate(-150.70375967792995)"></rect>
    </g>
    <g class="relationship">
      <path fill="#D4D6D7" stroke="none"
            d="M 0 0.5 L 11.996561221092108 0.5 L 11.996561221092108 -0.5 L 0 -0.5 Z M 58.99656122109211 0.5 L 70.99312244218422 0.5 L 70.99312244218422 3.5 L 77.99312244218422 0 L 70.99312244218422 -3.5 L 70.99312244218422 -0.5 L 58.99656122109211 -0.5 Z"
            transform="translate(447.9409368114979 48.85425770311903) rotate(150.54447256077572)"></path>
      <text text-anchor="middle" font-size="8px" fill="#000000" x="417.0327445374827" y="69.30961530115306"
            transform="rotate(330.5444725607757 417.0327445374827 66.30961530115306)">DIRECTED
      </text>
      <rect class="overlay" fill="yellow" x="0" y="-10" height="20" opacity="0" width="77.99312244218422"
            transform="translate(447.9409368114979 48.85425770311903) rotate(150.54447256077572)"></rect>
    </g>
  </g>
  <g class="layer nodes">
    <g class="node" transform="translate(585.0892408327913,228.58093379267865)">
      <circle class="outline" cx="0" cy="0" r="25" fill="#30B6AF" stroke="#46A39E" stroke-width="2px"></circle>
      <text text-anchor="middle" y="-10" font-size="10px" fill="#FFFFFF">A</text>
      <text text-anchor="middle" y="0" font-size="10px" fill="#FFFFFF">Few</text>
      <text text-anchor="middle" y="10" font-size="10px" fill="#FFFFFF">Good</text>
      <text text-anchor="middle" y="20" font-size="10px" fill="#FFFFFF">Men</text>
    </g>
    <g class="node" transform="translate(468.84571954908847,161.54864262662932)">
      <circle class="outline" cx="0" cy="0" r="25" fill="#AD62CE" stroke="#9453B1" stroke-width="2px"></circle>
      <text text-anchor="middle" y="0" font-size="10px" fill="#FFFFFF">Kevin</text>
      <text text-anchor="middle" y="10" font-size="10px" fill="#FFFFFF">Bacon</text>
    </g>
    <g class="node" transform="translate(465.5617853057963,283.0674468411794)">
      <circle class="outline" cx="0" cy="0" r="25" fill="#AD62CE" stroke="#9453B1" stroke-width="2px"></circle>
      <text text-anchor="middle" y="0" font-size="10px" fill="#FFFFFF">Rob</text>
      <text text-anchor="middle" y="10" font-size="10px" fill="#FFFFFF">Reiner</text>
    </g>
    <g class="node" transform="translate(469.7093780426795,36.560561498779364)">
      <circle class="outline" cx="0" cy="0" r="25" fill="#AD62CE" stroke="#9453B1" stroke-width="2px"></circle>
      <text text-anchor="middle" y="0" font-size="10px" fill="#FFFFFF">Ron</text>
      <text text-anchor="middle" y="10" font-size="10px" fill="#FFFFFF">Howard</text>
    </g>
    <g class="node" transform="translate(575.8669939422708,86.67700782768615)">
      <circle class="outline" cx="0" cy="0" r="25" fill="#30B6AF" stroke="#46A39E" stroke-width="2px"></circle>
      <text text-anchor="middle" y="5" font-size="10px" fill="#FFFFFF">Frost/Nixon</text>
    </g>
    <g class="node" transform="translate(358.2609474875551,99.50090404074189)">
      <circle class="outline" cx="0" cy="0" r="25" fill="#30B6AF" stroke="#46A39E" stroke-width="2px"></circle>
      <text text-anchor="middle" y="0" font-size="10px" fill="#FFFFFF">Apollo</text>
      <text text-anchor="middle" y="10" font-size="10px" fill="#FFFFFF">13</text>
    </g>
  </g>
</svg>