<?xml version="1.0" encoding="UTF-8"?>
<svg xmlns="http://www.w3.org/2000/svg" viewBox="0 0 1280 800">
  <rect width="1280" height="800"></rect>
  <line x1="577.2315433485011" y1="237.17458415487823" x2="559.8996419060261" y2="214.11264278985843"
        style="stroke: #999999; stroke-width: 1px;"></line>
  <line x1="577.2315433485011" y1="237.17458415487823" x2="584.5123091127673" y2="207.92782457730183"
        style="stroke: #999999; stroke-width: 1px;"></line>
  <line x1="577.2315433485011" y1="237.17458415487823" x2="574.8405069618403" y2="205.48956957799675"
        style="stroke: #999999; stroke-width: 1px;"></line>
  <line x1="577.2315433485011" y1="237.17458415487823" x2="564.9268528021439" y2="205.29084397470268"
        style="stroke: #999999; stroke-width: 1px;"></line>
  <line x1="551.9520547120079" y1="246.69502719294223" x2="532.2480647359881" y2="228.3503099905915"
        style="stroke: #999999; stroke-width: 1px;"></line>
  <line x1="551.9520547120079" y1="246.69502719294223" x2="542.4452611223596" y2="218.27185302524256"
        style="stroke: #999999; stroke-width: 1px;"></line>
  <line x1="551.9520547120079" y1="246.69502719294223" x2="531.1196033735127" y2="218.41673338048625"
        style="stroke: #999999; stroke-width: 1px;"></line>
  <line x1="551.9520547120079" y1="246.69502719294223" x2="522.0365073464804" y2="229.98368936247132"
        style="stroke: #999999; stroke-width: 1px;"></line>
  <line x1="551.9520547120079" y1="246.69502719294223" x2="521.1541602276172" y2="241.28103876295694"
        style="stroke: #999999; stroke-width: 1px;"></line>
  <line x1="561.9180383637946" y1="265.13633763949554" x2="532.0904517736876" y2="255.53676911041566"
        style="stroke: #999999; stroke-width: 1px;"></line>
  <line x1="590.7664112996091" y1="284.40535299089464" x2="577.2315433485011" y2="237.17458415487823"
        style="stroke: #999999; stroke-width: 1px;"></line>
  <line x1="590.7664112996091" y1="284.40535299089464" x2="551.9520547120079" y2="246.69502719294223"
        style="stroke: #999999; stroke-width: 1px;"></line>
  <line x1="590.7664112996091" y1="284.40535299089464" x2="561.9180383637946" y2="265.13633763949554"
        style="stroke: #999999; stroke-width: 1px;"></line>
  <line x1="655.5281889755148" y1="228.4796604841936" x2="651.4801326499232" y2="200.65571310229427"
        style="stroke: #999999; stroke-width: 1px;"></line>
  <line x1="655.5281889755148" y1="228.4796604841936" x2="644.599856933087" y2="194.21111066271234"
        style="stroke: #999999; stroke-width: 1px;"></line>
  <line x1="655.5281889755148" y1="228.4796604841936" x2="637.3242985444535" y2="203.16505868306535"
        style="stroke: #999999; stroke-width: 1px;"></line>
  <line x1="655.5281889755148" y1="228.4796604841936" x2="657.9724975147644" y2="190.97701850072008"
        style="stroke: #999999; stroke-width: 1px;"></line>
  <line x1="655.5281889755148" y1="228.4796604841936" x2="672.7390358409385" y2="206.19438827872503"
        style="stroke: #999999; stroke-width: 1px;"></line>
  <line x1="655.5281889755148" y1="228.4796604841936" x2="683.7410826954467" y2="214.22124285145978"
        style="stroke: #999999; stroke-width: 1px;"></line>
  <line x1="655.5281889755148" y1="228.4796604841936" x2="663.9369267397436" y2="199.25644403546576"
        style="stroke: #999999; stroke-width: 1px;"></line>
  <line x1="655.5281889755148" y1="228.4796604841936" x2="673.4015380388282" y2="194.63162609072387"
        style="stroke: #999999; stroke-width: 1px;"></line>
  <line x1="655.5281889755148" y1="228.4796604841936" x2="682.7309884764873" y2="203.4952860427634"
        style="stroke: #999999; stroke-width: 1px;"></line>
  <line x1="642.8340972736298" y1="280.8042274142735" x2="616.3422555091178" y2="268.99490077491936"
        style="stroke: #999999; stroke-width: 1px;"></line>
  <line x1="642.8340972736298" y1="280.8042274142735" x2="617.2391606267367" y2="279.9694829469759"
        style="stroke: #999999; stroke-width: 1px;"></line>
  <line x1="642.8340972736298" y1="280.8042274142735" x2="655.5281889755148" y2="228.4796604841936"
        style="stroke: #999999; stroke-width: 1px;"></line>
  <line x1="642.8340972736298" y1="280.8042274142735" x2="625.3109908487068" y2="249.8709694219654"
        style="stroke: #999999; stroke-width: 1px;"></line>
  <line x1="642.8340972736298" y1="280.8042274142735" x2="665.2626192361765" y2="263.8173506291519"
        style="stroke: #999999; stroke-width: 1px;"></line>
  <line x1="642.8340972736298" y1="280.8042274142735" x2="617.313704652798" y2="258.5694121391758"
        style="stroke: #999999; stroke-width: 1px;"></line>
  <line x1="642.8340972736298" y1="280.8042274142735" x2="653.1308775590996" y2="257.4714077020817"
        style="stroke: #999999; stroke-width: 1px;"></line>
  <line x1="642.8340972736298" y1="280.8042274142735" x2="627.1768489839941" y2="260.88009545549465"
        style="stroke: #999999; stroke-width: 1px;"></line>
  <line x1="642.8340972736298" y1="280.8042274142735" x2="639.0293731781711" y2="255.51913842742115"
        style="stroke: #999999; stroke-width: 1px;"></line>
  <line x1="642.8340972736298" y1="280.8042274142735" x2="648.633840569041" y2="248.17033518911524"
        style="stroke: #999999; stroke-width: 1px;"></line>
  <line x1="642.8340972736298" y1="280.8042274142735" x2="662.7182459031375" y2="253.39316547336364"
        style="stroke: #999999; stroke-width: 1px;"></line>
  <line x1="642.8340972736298" y1="280.8042274142735" x2="635.7192564714651" y2="246.06534800882878"
        style="stroke: #999999; stroke-width: 1px;"></line>
  <line x1="709.226144821165" y1="267.60281856632747" x2="727.6511440890544" y2="236.1691447033964"
        style="stroke: #999999; stroke-width: 1px;"></line>
  <line x1="709.226144821165" y1="267.60281856632747" x2="738.4497489197963" y2="244.2916080327118"
        style="stroke: #999999; stroke-width: 1px;"></line>
  <line x1="709.226144821165" y1="267.60281856632747" x2="739.1541189453351" y2="255.65789558439283"
        style="stroke: #999999; stroke-width: 1px;"></line>
  <line x1="709.226144821165" y1="267.60281856632747" x2="728.5155462893016" y2="246.90199758757967"
        style="stroke: #999999; stroke-width: 1px;"></line>
  <line x1="709.226144821165" y1="267.60281856632747" x2="716.7224308619373" y2="237.4098792182117"
        style="stroke: #999999; stroke-width: 1px;"></line>
  <line x1="675.006358175018" y1="306.7825361484808" x2="709.226144821165" y2="267.60281856632747"
        style="stroke: #999999; stroke-width: 1px;"></line>
  <line x1="675.006358175018" y1="306.7825361484808" x2="651.7509240395651" y2="301.59072287481035"
        style="stroke: #999999; stroke-width: 1px;"></line>
  <line x1="675.006358175018" y1="306.7825361484808" x2="699.8762079147066" y2="296.81307963348047"
        style="stroke: #999999; stroke-width: 1px;"></line>
  <line x1="675.006358175018" y1="306.7825361484808" x2="696.6477335047747" y2="286.44396450846824"
        style="stroke: #999999; stroke-width: 1px;"></line>
  <line x1="675.006358175018" y1="306.7825361484808" x2="688.4024526299473" y2="280.3594312384389"
        style="stroke: #999999; stroke-width: 1px;"></line>
  <line x1="675.006358175018" y1="306.7825361484808" x2="677.8172299011559" y2="281.02222600263286"
        style="stroke: #999999; stroke-width: 1px;"></line>
  <line x1="675.006358175018" y1="306.7825361484808" x2="661.8504971105607" y2="288.28086506403093"
        style="stroke: #999999; stroke-width: 1px;"></line>
  <line x1="662.8229769350453" y1="344.43928325066094" x2="644.3580799650542" y2="326.6422045535624"
        style="stroke: #999999; stroke-width: 1px;"></line>
  <line x1="662.8229769350453" y1="344.43928325066094" x2="638.3850816896005" y2="337.5077523099864"
        style="stroke: #999999; stroke-width: 1px;"></line>
  <line x1="662.8229769350453" y1="344.43928325066094" x2="686.5986408883812" y2="338.0077883150614"
        style="stroke: #999999; stroke-width: 1px;"></line>
  <line x1="662.8229769350453" y1="344.43928325066094" x2="666.2022833440413" y2="366.39903453744586"
        style="stroke: #999999; stroke-width: 1px;"></line>
  <line x1="656.9422870929179" y1="330.8330474939288" x2="680.0394284488684" y2="319.96130253387673"
        style="stroke: #999999; stroke-width: 1px;"></line>
  <line x1="678.4649007068311" y1="367.8090842423585" x2="693.3212518301663" y2="397.3304606123935"
        style="stroke: #999999; stroke-width: 1px;"></line>
  <line x1="678.4649007068311" y1="367.8090842423585" x2="707.3450053780241" y2="366.84993981869746"
        style="stroke: #999999; stroke-width: 1px;"></line>
  <line x1="678.4649007068311" y1="367.8090842423585" x2="703.3948383936377" y2="393.6936805592248"
        style="stroke: #999999; stroke-width: 1px;"></line>
  <line x1="678.4649007068311" y1="367.8090842423585" x2="701.3921158375542" y2="355.68440795736336"
        style="stroke: #999999; stroke-width: 1px;"></line>
  <line x1="678.4649007068311" y1="367.8090842423585" x2="683.9357035529936" y2="394.05554321925433"
        style="stroke: #999999; stroke-width: 1px;"></line>
  <line x1="678.4649007068311" y1="367.8090842423585" x2="704.8158281043018" y2="376.19588117509096"
        style="stroke: #999999; stroke-width: 1px;"></line>
  <line x1="678.4649007068311" y1="367.8090842423585" x2="709.9809465222386" y2="384.71444928567774"
        style="stroke: #999999; stroke-width: 1px;"></line>
  <line x1="678.4649007068311" y1="367.8090842423585" x2="696.3396085058228" y2="384.97798588245473"
        style="stroke: #999999; stroke-width: 1px;"></line>
  <line x1="503.7777833431148" y1="383.64603993437584" x2="501.21892330275654" y2="427.2237698835793"
        style="stroke: #999999; stroke-width: 1px;"></line>
  <line x1="503.7777833431148" y1="383.64603993437584" x2="486.4881588078667" y2="364.18418251084785"
        style="stroke: #999999; stroke-width: 1px;"></line>
  <line x1="503.7777833431148" y1="383.64603993437584" x2="495.50225789738795" y2="355.59690504413527"
        style="stroke: #999999; stroke-width: 1px;"></line>
  <line x1="503.7777833431148" y1="383.64603993437584" x2="481.55487188775646" y2="425.0593221224195"
        style="stroke: #999999; stroke-width: 1px;"></line>
  <line x1="503.7777833431148" y1="383.64603993437584" x2="477.83502721707004" y2="386.408195635372"
        style="stroke: #999999; stroke-width: 1px;"></line>
  <line x1="503.7777833431148" y1="383.64603993437584" x2="501.0592929465035" y2="417.41889439632723"
        style="stroke: #999999; stroke-width: 1px;"></line>
  <line x1="503.7777833431148" y1="383.64603993437584" x2="464.41244462672125" y2="358.22922844338814"
        style="stroke: #999999; stroke-width: 1px;"></line>
  <line x1="503.7777833431148" y1="383.64603993437584" x2="472.7862681519337" y2="420.23282770329115"
        style="stroke: #999999; stroke-width: 1px;"></line>
  <line x1="503.7777833431148" y1="383.64603993437584" x2="511.91229471009626" y2="411.4433056263253"
        style="stroke: #999999; stroke-width: 1px;"></line>
  <line x1="503.7777833431148" y1="383.64603993437584" x2="480.85906510205314" y2="345.73677231197007"
        style="stroke: #999999; stroke-width: 1px;"></line>
  <line x1="503.7777833431148" y1="383.64603993437584" x2="511.2654123759781" y2="421.6169105861086"
        style="stroke: #999999; stroke-width: 1px;"></line>
  <line x1="503.7777833431148" y1="383.64603993437584" x2="491.483970508181" y2="427.14499905104714"
        style="stroke: #999999; stroke-width: 1px;"></line>
  <line x1="503.7777833431148" y1="383.64603993437584" x2="498.016541937761" y2="408.3151840717304"
        style="stroke: #999999; stroke-width: 1px;"></line>
  <line x1="503.7777833431148" y1="383.64603993437584" x2="486.64712229594727" y2="404.5986561502216"
        style="stroke: #999999; stroke-width: 1px;"></line>
  <line x1="503.7777833431148" y1="383.64603993437584" x2="469.5908286503202" y2="375.5916700285271"
        style="stroke: #999999; stroke-width: 1px;"></line>
  <line x1="503.7777833431148" y1="383.64603993437584" x2="479.0649711827603" y2="396.8823137227464"
        style="stroke: #999999; stroke-width: 1px;"></line>
  <line x1="503.7777833431148" y1="383.64603993437584" x2="467.49731632375034" y2="395.7509400278126"
        style="stroke: #999999; stroke-width: 1px;"></line>
  <line x1="503.7777833431148" y1="383.64603993437584" x2="471.82625744750703" y2="405.2084567357472"
        style="stroke: #999999; stroke-width: 1px;"></line>
  <line x1="503.7777833431148" y1="383.64603993437584" x2="479.3897129229048" y2="374.3571439545056"
        style="stroke: #999999; stroke-width: 1px;"></line>
  <line x1="503.7777833431148" y1="383.64603993437584" x2="467.048402677749" y2="385.39241962535647"
        style="stroke: #999999; stroke-width: 1px;"></line>
  <line x1="503.7777833431148" y1="383.64603993437584" x2="473.98641771121123" y2="363.87816521503964"
        style="stroke: #999999; stroke-width: 1px;"></line>
  <line x1="503.7777833431148" y1="383.64603993437584" x2="479.71875895878804" y2="412.5689666390374"
        style="stroke: #999999; stroke-width: 1px;"></line>
  <line x1="503.7777833431148" y1="383.64603993437584" x2="491.44061378084865" y2="346.41986746397697"
        style="stroke: #999999; stroke-width: 1px;"></line>
  <line x1="503.7777833431148" y1="383.64603993437584" x2="458.13226740796733" y2="375.11482698384464"
        style="stroke: #999999; stroke-width: 1px;"></line>
  <line x1="503.7777833431148" y1="383.64603993437584" x2="472.0928032575854" y2="351.9596209481601"
        style="stroke: #999999; stroke-width: 1px;"></line>
  <line x1="503.7777833431148" y1="383.64603993437584" x2="457.08377802217564" y2="394.4340504186443"
        style="stroke: #999999; stroke-width: 1px;"></line>
  <line x1="503.7777833431148" y1="383.64603993437584" x2="456.9375611201182" y2="384.36212366085425"
        style="stroke: #999999; stroke-width: 1px;"></line>
  <line x1="503.7777833431148" y1="383.64603993437584" x2="482.36739841809015" y2="355.3321826624258"
        style="stroke: #999999; stroke-width: 1px;"></line>
  <line x1="503.7777833431148" y1="383.64603993437584" x2="460.65724426580607" y2="404.61119978765026"
        style="stroke: #999999; stroke-width: 1px;"></line>
  <line x1="503.7777833431148" y1="383.64603993437584" x2="462.1709091369121" y2="367.01093125290106"
        style="stroke: #999999; stroke-width: 1px;"></line>
  <line x1="503.7777833431148" y1="383.64603993437584" x2="466.0327108220812" y2="413.51770699404454"
        style="stroke: #999999; stroke-width: 1px;"></line>
  <line x1="503.7777833431148" y1="383.64603993437584" x2="489.41978882343443" y2="416.93835221499074"
        style="stroke: #999999; stroke-width: 1px;"></line>
  <line x1="553.566872115079" y1="369.0309503193291" x2="579.088735529156" y2="378.6322766863832"
        style="stroke: #999999; stroke-width: 1px;"></line>
  <line x1="553.566872115079" y1="369.0309503193291" x2="536.041091539648" y2="352.71866893369236"
        style="stroke: #999999; stroke-width: 1px;"></line>
  <line x1="553.566872115079" y1="369.0309503193291" x2="578.9491428574245" y2="357.6135434281556"
        style="stroke: #999999; stroke-width: 1px;"></line>
  <line x1="553.566872115079" y1="369.0309503193291" x2="544.3668634971458" y2="390.9127739241597"
        style="stroke: #999999; stroke-width: 1px;"></line>
  <line x1="553.566872115079" y1="369.0309503193291" x2="563.2959488243685" y2="403.99741693840053"
        style="stroke: #999999; stroke-width: 1px;"></line>
  <line x1="553.566872115079" y1="369.0309503193291" x2="530.3546117299983" y2="333.3287752463155"
        style="stroke: #999999; stroke-width: 1px;"></line>
  <line x1="553.566872115079" y1="369.0309503193291" x2="552.2256119876947" y2="407.90658873522517"
        style="stroke: #999999; stroke-width: 1px;"></line>
  <line x1="553.566872115079" y1="369.0309503193291" x2="565.9547792907548" y2="335.482587287221"
        style="stroke: #999999; stroke-width: 1px;"></line>
  <line x1="553.566872115079" y1="369.0309503193291" x2="527.8740782465499" y2="373.98079981842034"
        style="stroke: #999999; stroke-width: 1px;"></line>
  <line x1="553.566872115079" y1="369.0309503193291" x2="535.227419322508" y2="394.8486900765111"
        style="stroke: #999999; stroke-width: 1px;"></line>
  <line x1="553.566872115079" y1="369.0309503193291" x2="549.2427548670973" y2="345.3242719959963"
        style="stroke: #999999; stroke-width: 1px;"></line>
  <line x1="553.566872115079" y1="369.0309503193291" x2="575.6607669878548" y2="345.1534073310997"
        style="stroke: #999999; stroke-width: 1px;"></line>
  <line x1="553.566872115079" y1="369.0309503193291" x2="559.4868185207681" y2="341.6881103569981"
        style="stroke: #999999; stroke-width: 1px;"></line>
  <line x1="553.566872115079" y1="369.0309503193291" x2="535.1810585361766" y2="342.1157186033083"
        style="stroke: #999999; stroke-width: 1px;"></line>
  <line x1="553.566872115079" y1="369.0309503193291" x2="553.1908854198019" y2="397.72079758391425"
        style="stroke: #999999; stroke-width: 1px;"></line>
  <line x1="553.566872115079" y1="369.0309503193291" x2="573.5397672604909" y2="386.41109198099406"
        style="stroke: #999999; stroke-width: 1px;"></line>
  <line x1="553.566872115079" y1="369.0309503193291" x2="525.3386931124201" y2="353.33806739242385"
        style="stroke: #999999; stroke-width: 1px;"></line>
  <line x1="553.566872115079" y1="369.0309503193291" x2="572.4687102726044" y2="396.5300102196343"
        style="stroke: #999999; stroke-width: 1px;"></line>
  <line x1="553.566872115079" y1="369.0309503193291" x2="503.7777833431148" y2="383.64603993437584"
        style="stroke: #999999; stroke-width: 1px;"></line>
  <line x1="553.566872115079" y1="369.0309503193291" x2="568.5116684434374" y2="350.451277934771"
        style="stroke: #999999; stroke-width: 1px;"></line>
  <line x1="553.566872115079" y1="369.0309503193291" x2="553.9497903902312" y2="331.2037013310972"
        style="stroke: #999999; stroke-width: 1px;"></line>
  <line x1="553.566872115079" y1="369.0309503193291" x2="531.217411596763" y2="384.6840970647562"
        style="stroke: #999999; stroke-width: 1px;"></line>
  <line x1="553.566872115079" y1="369.0309503193291" x2="526.4735189670378" y2="363.4848108217819"
        style="stroke: #999999; stroke-width: 1px;"></line>
  <line x1="553.566872115079" y1="369.0309503193291" x2="544.8026816881561" y2="336.9073553355505"
        style="stroke: #999999; stroke-width: 1px;"></line>
  <line x1="553.566872115079" y1="369.0309503193291" x2="524.5270420012337" y2="343.1471521094268"
        style="stroke: #999999; stroke-width: 1px;"></line>
  <line x1="553.566872115079" y1="369.0309503193291" x2="562.515736100789" y2="392.1867268889782"
        style="stroke: #999999; stroke-width: 1px;"></line>
  <line x1="553.566872115079" y1="369.0309503193291" x2="541.2150271374126" y2="328.6949071679803"
        style="stroke: #999999; stroke-width: 1px;"></line>
  <line x1="553.566872115079" y1="369.0309503193291" x2="542.7087262789632" y2="403.37436283375104"
        style="stroke: #999999; stroke-width: 1px;"></line>
  <line x1="553.566872115079" y1="369.0309503193291" x2="579.0011177408304" y2="367.97535246750783"
        style="stroke: #999999; stroke-width: 1px;"></line>
  <line x1="641.9332543360259" y1="382.33306987912727" x2="644.9596522250417" y2="406.4562880571675"
        style="stroke: #999999; stroke-width: 1px;"></line>
  <line x1="641.9332543360259" y1="382.33306987912727" x2="619.3334829387718" y2="389.9903886957739"
        style="stroke: #999999; stroke-width: 1px;"></line>
  <line x1="641.9332543360259" y1="382.33306987912727" x2="623.527261989147" y2="369.37773533275316"
        style="stroke: #999999; stroke-width: 1px;"></line>
  <line x1="641.9332543360259" y1="382.33306987912727" x2="658.2354036120861" y2="403.26227715976864"
        style="stroke: #999999; stroke-width: 1px;"></line>
  <line x1="641.9332543360259" y1="382.33306987912727" x2="631.4632232928061" y2="412.70506915673724"
        style="stroke: #999999; stroke-width: 1px;"></line>
  <line x1="641.9332543360259" y1="382.33306987912727" x2="629.7861423868131" y2="401.5956424538775"
        style="stroke: #999999; stroke-width: 1px;"></line>
  <line x1="641.9332543360259" y1="382.33306987912727" x2="664.1825983681487" y2="395.1344286978108"
        style="stroke: #999999; stroke-width: 1px;"></line>
  <line x1="641.9332543360259" y1="382.33306987912727" x2="656.353417800994" y2="412.5541016029808"
        style="stroke: #999999; stroke-width: 1px;"></line>
  <line x1="641.9332543360259" y1="382.33306987912727" x2="621.1119290761718" y2="405.17512099231016"
        style="stroke: #999999; stroke-width: 1px;"></line>
  <line x1="641.9332543360259" y1="382.33306987912727" x2="642.7549966151821" y2="415.92221545097624"
        style="stroke: #999999; stroke-width: 1px;"></line>
  <line x1="777.3849530877902" y1="330.97000971051034" x2="813.0177342227206" y2="321.1950132014131"
        style="stroke: #999999; stroke-width: 1px;"></line>
  <line x1="777.3849530877902" y1="330.97000971051034" x2="814.4300574229417" y2="332.34269004357645"
        style="stroke: #999999; stroke-width: 1px;"></line>
  <line x1="777.9144234171698" y1="352.57694771192797" x2="807.6432456337436" y2="371.0566647231982"
        style="stroke: #999999; stroke-width: 1px;"></line>
  <line x1="777.9144234171698" y1="352.57694771192797" x2="814.319467368058" y2="362.0426854134618"
        style="stroke: #999999; stroke-width: 1px;"></line>
  <line x1="777.9144234171698" y1="352.57694771192797" x2="813.6067589120881" y2="351.7415925551004"
        style="stroke: #999999; stroke-width: 1px;"></line>
  <line x1="771.4770265666544" y1="307.97846241479084" x2="805.3481294688576" y2="301.6523273557662"
        style="stroke: #999999; stroke-width: 1px;"></line>
  <line x1="771.4770265666544" y1="307.97846241479084" x2="788.8534559077432" y2="278.43218810999537"
        style="stroke: #999999; stroke-width: 1px;"></line>
  <line x1="771.4770265666544" y1="307.97846241479084" x2="803.9009277195852" y2="291.58868760021255"
        style="stroke: #999999; stroke-width: 1px;"></line>
  <line x1="771.4770265666544" y1="307.97846241479084" x2="797.4552504214445" y2="284.18324999395315"
        style="stroke: #999999; stroke-width: 1px;"></line>
  <line x1="728.2168326389404" y1="337.67689163160554" x2="745.5480220602418" y2="356.86964489012365"
        style="stroke: #999999; stroke-width: 1px;"></line>
  <line x1="728.2168326389404" y1="337.67689163160554" x2="753.6538140868736" y2="338.86110903663985"
        style="stroke: #999999; stroke-width: 1px;"></line>
  <line x1="728.2168326389404" y1="337.67689163160554" x2="733.2873066772855" y2="308.2514886610952"
        style="stroke: #999999; stroke-width: 1px;"></line>
  <line x1="728.2168326389404" y1="337.67689163160554" x2="749.1041612382833" y2="367.032620529271"
        style="stroke: #999999; stroke-width: 1px;"></line>
  <line x1="728.2168326389404" y1="337.67689163160554" x2="751.3282682180377" y2="326.1305568440793"
        style="stroke: #999999; stroke-width: 1px;"></line>
  <line x1="728.2168326389404" y1="337.67689163160554" x2="742.1289995903608" y2="305.20123888289123"
        style="stroke: #999999; stroke-width: 1px;"></line>
  <line x1="728.2168326389404" y1="337.67689163160554" x2="777.3849530877902" y2="330.97000971051034"
        style="stroke: #999999; stroke-width: 1px;"></line>
  <line x1="728.2168326389404" y1="337.67689163160554" x2="724.541013463744" y2="313.3517496459382"
        style="stroke: #999999; stroke-width: 1px;"></line>
  <line x1="728.2168326389404" y1="337.67689163160554" x2="742.7848271869286" y2="317.4181819247696"
        style="stroke: #999999; stroke-width: 1px;"></line>
  <line x1="728.2168326389404" y1="337.67689163160554" x2="737.7316971327821" y2="364.38676308792833"
        style="stroke: #999999; stroke-width: 1px;"></line>
  <line x1="728.2168326389404" y1="337.67689163160554" x2="777.9144234171698" y2="352.57694771192797"
        style="stroke: #999999; stroke-width: 1px;"></line>
  <line x1="728.2168326389404" y1="337.67689163160554" x2="763.7301613537038" y2="338.16864663753165"
        style="stroke: #999999; stroke-width: 1px;"></line>
  <line x1="728.2168326389404" y1="337.67689163160554" x2="758.5854953210486" y2="361.18804228325007"
        style="stroke: #999999; stroke-width: 1px;"></line>
  <line x1="728.2168326389404" y1="337.67689163160554" x2="771.4770265666544" y2="307.97846241479084"
        style="stroke: #999999; stroke-width: 1px;"></line>
  <line x1="728.2168326389404" y1="337.67689163160554" x2="763.3371297610756" y2="349.67612313068196"
        style="stroke: #999999; stroke-width: 1px;"></line>
  <line x1="728.2168326389404" y1="337.67689163160554" x2="762.0878314477056" y2="327.12032039201546"
        style="stroke: #999999; stroke-width: 1px;"></line>
  <line x1="728.2168326389404" y1="337.67689163160554" x2="753.7697077687088" y2="350.92461720775543"
        style="stroke: #999999; stroke-width: 1px;"></line>
  <line x1="728.2168326389404" y1="337.67689163160554" x2="751.1109587392356" y2="309.1162830678878"
        style="stroke: #999999; stroke-width: 1px;"></line>
  <line x1="728.2168326389404" y1="337.67689163160554" x2="757.6638200315836" y2="317.3486676907285"
        style="stroke: #999999; stroke-width: 1px;"></line>
  <line x1="615.4785253895944" y1="482.8317009464238" x2="591.0657512127696" y2="475.3019883666613"
        style="stroke: #999999; stroke-width: 1px;"></line>
  <line x1="615.4785253895944" y1="482.8317009464238" x2="581.9552549265775" y2="497.17192998545744"
        style="stroke: #999999; stroke-width: 1px;"></line>
  <line x1="615.4785253895944" y1="482.8317009464238" x2="582.4736726917996" y2="484.499478784472"
        style="stroke: #999999; stroke-width: 1px;"></line>
  <line x1="615.4785253895944" y1="482.8317009464238" x2="591.1170028126382" y2="490.90878976646883"
        style="stroke: #999999; stroke-width: 1px;"></line>
  <line x1="615.4785253895944" y1="482.8317009464238" x2="591.8514819307998" y2="503.3406915285059"
        style="stroke: #999999; stroke-width: 1px;"></line>
  <line x1="649.8632833076899" y1="521.6927428078088" x2="635.1751970944836" y2="557.1623418713261"
        style="stroke: #999999; stroke-width: 1px;"></line>
  <line x1="649.8632833076899" y1="521.6927428078088" x2="628.0726894739562" y2="538.7433567989591"
        style="stroke: #999999; stroke-width: 1px;"></line>
  <line x1="649.8632833076899" y1="521.6927428078088" x2="658.0853277950029" y2="545.0538148154665"
        style="stroke: #999999; stroke-width: 1px;"></line>
  <line x1="649.8632833076899" y1="521.6927428078088" x2="644.039775135688" y2="561.5378085867515"
        style="stroke: #999999; stroke-width: 1px;"></line>
  <line x1="649.8632833076899" y1="521.6927428078088" x2="648.1185597451342" y2="550.5046892722571"
        style="stroke: #999999; stroke-width: 1px;"></line>
  <line x1="649.8632833076899" y1="521.6927428078088" x2="663.3963358509254" y2="554.297193700957"
        style="stroke: #999999; stroke-width: 1px;"></line>
  <line x1="649.8632833076899" y1="521.6927428078088" x2="628.5002611392177" y2="549.1494383034358"
        style="stroke: #999999; stroke-width: 1px;"></line>
  <line x1="649.8632833076899" y1="521.6927428078088" x2="654.4002454556721" y2="559.9852203531194"
        style="stroke: #999999; stroke-width: 1px;"></line>
  <line x1="649.8632833076899" y1="521.6927428078088" x2="669.5046948035767" y2="543.8968946122071"
        style="stroke: #999999; stroke-width: 1px;"></line>
  <line x1="649.8632833076899" y1="521.6927428078088" x2="672.113638643583" y2="532.3732131680141"
        style="stroke: #999999; stroke-width: 1px;"></line>
  <line x1="649.8632833076899" y1="521.6927428078088" x2="638.8385180484083" y2="545.1943439284985"
        style="stroke: #999999; stroke-width: 1px;"></line>
  <line x1="557.7274521649466" y1="567.1119840424128" x2="526.976086689959" y2="571.6415509523662"
        style="stroke: #999999; stroke-width: 1px;"></line>
  <line x1="557.7274521649466" y1="567.1119840424128" x2="530.8618734452848" y2="582.9540559727111"
        style="stroke: #999999; stroke-width: 1px;"></line>
  <line x1="557.7274521649466" y1="567.1119840424128" x2="550.4114415463308" y2="596.8932903943385"
        style="stroke: #999999; stroke-width: 1px;"></line>
  <line x1="557.7274521649466" y1="567.1119840424128" x2="538.3442288231163" y2="591.3914098739798"
        style="stroke: #999999; stroke-width: 1px;"></line>
  <line x1="593.9435973599179" y1="533.7882897932848" x2="585.444316178869" y2="560.2567279866748"
        style="stroke: #999999; stroke-width: 1px;"></line>
  <line x1="593.9435973599179" y1="533.7882897932848" x2="572.5301109640307" y2="552.4803090383442"
        style="stroke: #999999; stroke-width: 1px;"></line>
  <line x1="593.9435973599179" y1="533.7882897932848" x2="560.4541333172715" y2="533.2937790641947"
        style="stroke: #999999; stroke-width: 1px;"></line>
  <line x1="593.9435973599179" y1="533.7882897932848" x2="565.8400988179518" y2="540.926237428155"
        style="stroke: #999999; stroke-width: 1px;"></line>
  <line x1="593.9435973599179" y1="533.7882897932848" x2="585.6388548137284" y2="570.2884733829957"
        style="stroke: #999999; stroke-width: 1px;"></line>
  <line x1="593.9435973599179" y1="533.7882897932848" x2="557.7274521649466" y2="567.1119840424128"
        style="stroke: #999999; stroke-width: 1px;"></line>
  <line x1="593.9435973599179" y1="533.7882897932848" x2="561.9121248482378" y2="549.4415201251675"
        style="stroke: #999999; stroke-width: 1px;"></line>
  <line x1="593.9435973599179" y1="533.7882897932848" x2="574.9202554849742" y2="562.9590131548958"
        style="stroke: #999999; stroke-width: 1px;"></line>
  <line x1="593.9435973599179" y1="533.7882897932848" x2="596.3366869094236" y2="566.9463123579669"
        style="stroke: #999999; stroke-width: 1px;"></line>
  <line x1="632.0613941538925" y1="497.8829223963394" x2="607.5135942516166" y2="514.9314573422864"
        style="stroke: #999999; stroke-width: 1px;"></line>
  <line x1="632.0613941538925" y1="497.8829223963394" x2="608.9834175381013" y2="503.30744132551575"
        style="stroke: #999999; stroke-width: 1px;"></line>
  <line x1="632.0613941538925" y1="497.8829223963394" x2="615.2125088055689" y2="521.9020178236794"
        style="stroke: #999999; stroke-width: 1px;"></line>
  <line x1="632.0613941538925" y1="497.8829223963394" x2="627.4043718097709" y2="520.7523384491868"
        style="stroke: #999999; stroke-width: 1px;"></line>
  <line x1="669.1670839380729" y1="490.08295425694826" x2="691.3228528171928" y2="479.0683170457361"
        style="stroke: #999999; stroke-width: 1px;"></line>
  <line x1="669.1670839380729" y1="490.08295425694826" x2="691.5171541815307" y2="496.9591279133166"
        style="stroke: #999999; stroke-width: 1px;"></line>
  <line x1="669.1670839380729" y1="490.08295425694826" x2="680.4811210098678" y2="510.4823330267783"
        style="stroke: #999999; stroke-width: 1px;"></line>
  <line x1="760.1818996365354" y1="498.56235710294726" x2="791.5452963457369" y2="490.8356046429409"
        style="stroke: #999999; stroke-width: 1px;"></line>
  <line x1="760.1818996365354" y1="498.56235710294726" x2="791.8192316330314" y2="477.86159031330817"
        style="stroke: #999999; stroke-width: 1px;"></line>
  <line x1="760.1818996365354" y1="498.56235710294726" x2="799.7455604635045" y2="486.11136528116594"
        style="stroke: #999999; stroke-width: 1px;"></line>
  <line x1="746.8913432023389" y1="484.6249418024192" x2="753.8898911256118" y2="458.58484290252636"
        style="stroke: #999999; stroke-width: 1px;"></line>
  <line x1="746.8913432023389" y1="484.6249418024192" x2="765.9640010903308" y2="457.6036538232695"
        style="stroke: #999999; stroke-width: 1px;"></line>
  <line x1="746.8913432023389" y1="484.6249418024192" x2="768.3734069414176" y2="468.1115066976539"
        style="stroke: #999999; stroke-width: 1px;"></line>
  <line x1="746.8913432023389" y1="484.6249418024192" x2="774.9222762760342" y2="477.90731759679903"
        style="stroke: #999999; stroke-width: 1px;"></line>
  <line x1="746.8913432023389" y1="484.6249418024192" x2="778.0800216869095" y2="464.61593800004897"
        style="stroke: #999999; stroke-width: 1px;"></line>
  <line x1="730.4730409620208" y1="552.8418486189039" x2="745.1933447740544" y2="581.5626778743119"
        style="stroke: #999999; stroke-width: 1px;"></line>
  <line x1="730.4730409620208" y1="552.8418486189039" x2="737.1298234067965" y2="588.2098537242107"
        style="stroke: #999999; stroke-width: 1px;"></line>
  <line x1="730.4730409620208" y1="552.8418486189039" x2="728.0585423908997" y2="583.7979319484624"
        style="stroke: #999999; stroke-width: 1px;"></line>
  <line x1="712.7411870344307" y1="553.7790740478526" x2="697.4985114845682" y2="581.7623849682657"
        style="stroke: #999999; stroke-width: 1px;"></line>
  <line x1="712.7411870344307" y1="553.7790740478526" x2="704.3191876553178" y2="589.5387578849234"
        style="stroke: #999999; stroke-width: 1px;"></line>
  <line x1="712.7411870344307" y1="553.7790740478526" x2="713.7925177433955" y2="586.6258724716192"
        style="stroke: #999999; stroke-width: 1px;"></line>
  <line x1="763.4671186587188" y1="531.9091660622007" x2="780.654947348672" y2="512.2988958323147"
        style="stroke: #999999; stroke-width: 1px;"></line>
  <line x1="763.4671186587188" y1="531.9091660622007" x2="779.6905367309729" y2="553.1931041412653"
        style="stroke: #999999; stroke-width: 1px;"></line>
  <line x1="763.4671186587188" y1="531.9091660622007" x2="791.0787170028843" y2="535.5238890152415"
        style="stroke: #999999; stroke-width: 1px;"></line>
  <line x1="763.4671186587188" y1="531.9091660622007" x2="757.7528616372684" y2="559.4838598916178"
        style="stroke: #999999; stroke-width: 1px;"></line>
  <line x1="763.4671186587188" y1="531.9091660622007" x2="791.4868029524691" y2="556.224090066715"
        style="stroke: #999999; stroke-width: 1px;"></line>
  <line x1="763.4671186587188" y1="531.9091660622007" x2="770.9959841173385" y2="566.243707658158"
        style="stroke: #999999; stroke-width: 1px;"></line>
  <line x1="763.4671186587188" y1="531.9091660622007" x2="799.3467911292581" y2="518.7268427394149"
        style="stroke: #999999; stroke-width: 1px;"></line>
  <line x1="763.4671186587188" y1="531.9091660622007" x2="798.1496331459912" y2="547.3182743553067"
        style="stroke: #999999; stroke-width: 1px;"></line>
  <line x1="763.4671186587188" y1="531.9091660622007" x2="787.1332197465188" y2="545.3419120122146"
        style="stroke: #999999; stroke-width: 1px;"></line>
  <line x1="763.4671186587188" y1="531.9091660622007" x2="788.8584322504781" y2="525.3770143880823"
        style="stroke: #999999; stroke-width: 1px;"></line>
  <line x1="763.4671186587188" y1="531.9091660622007" x2="801.668825345785" y2="527.8922136759222"
        style="stroke: #999999; stroke-width: 1px;"></line>
  <line x1="763.4671186587188" y1="531.9091660622007" x2="801.9376255227463" y2="537.6230482606259"
        style="stroke: #999999; stroke-width: 1px;"></line>
  <line x1="763.4671186587188" y1="531.9091660622007" x2="790.6289905406893" y2="514.0953735547649"
        style="stroke: #999999; stroke-width: 1px;"></line>
  <line x1="763.4671186587188" y1="531.9091660622007" x2="768.4927763102785" y2="557.3914776421001"
        style="stroke: #999999; stroke-width: 1px;"></line>
  <line x1="763.4671186587188" y1="531.9091660622007" x2="782.5822307860587" y2="562.9528546592462"
        style="stroke: #999999; stroke-width: 1px;"></line>
  <line x1="722.2396674791261" y1="513.1139586735062" x2="760.1818996365354" y2="498.56235710294726"
        style="stroke: #999999; stroke-width: 1px;"></line>
  <line x1="722.2396674791261" y1="513.1139586735062" x2="746.8913432023389" y2="484.6249418024192"
        style="stroke: #999999; stroke-width: 1px;"></line>
  <line x1="722.2396674791261" y1="513.1139586735062" x2="730.4730409620208" y2="552.8418486189039"
        style="stroke: #999999; stroke-width: 1px;"></line>
  <line x1="722.2396674791261" y1="513.1139586735062" x2="725.8020494408128" y2="489.89198981958685"
        style="stroke: #999999; stroke-width: 1px;"></line>
  <line x1="722.2396674791261" y1="513.1139586735062" x2="712.7411870344307" y2="553.7790740478526"
        style="stroke: #999999; stroke-width: 1px;"></line>
  <line x1="722.2396674791261" y1="513.1139586735062" x2="763.4671186587188" y2="531.9091660622007"
        style="stroke: #999999; stroke-width: 1px;"></line>
  <line x1="722.2396674791261" y1="513.1139586735062" x2="744.5701533367167" y2="520.3361721851142"
        style="stroke: #999999; stroke-width: 1px;"></line>
  <line x1="722.2396674791261" y1="513.1139586735062" x2="723.0080067963181" y2="537.7399261146377"
        style="stroke: #999999; stroke-width: 1px;"></line>
  <line x1="722.2396674791261" y1="513.1139586735062" x2="742.2208935793229" y2="502.47537366874946"
        style="stroke: #999999; stroke-width: 1px;"></line>
  <line x1="722.2396674791261" y1="513.1139586735062" x2="735.9192003878135" y2="533.7708788767068"
        style="stroke: #999999; stroke-width: 1px;"></line>
  <line x1="722.2396674791261" y1="513.1139586735062" x2="709.8892522184497" y2="534.106004457177"
        style="stroke: #999999; stroke-width: 1px;"></line>
  <line x1="649.3521493882002" y1="477.11546189567525" x2="615.4785253895944" y2="482.8317009464238"
        style="stroke: #999999; stroke-width: 1px;"></line>
  <line x1="649.3521493882002" y1="477.11546189567525" x2="649.8632833076899" y2="521.6927428078088"
        style="stroke: #999999; stroke-width: 1px;"></line>
  <line x1="649.3521493882002" y1="477.11546189567525" x2="593.9435973599179" y2="533.7882897932848"
        style="stroke: #999999; stroke-width: 1px;"></line>
  <line x1="649.3521493882002" y1="477.11546189567525" x2="632.0613941538925" y2="497.8829223963394"
        style="stroke: #999999; stroke-width: 1px;"></line>
  <line x1="649.3521493882002" y1="477.11546189567525" x2="669.1670839380729" y2="490.08295425694826"
        style="stroke: #999999; stroke-width: 1px;"></line>
  <line x1="649.3521493882002" y1="477.11546189567525" x2="722.2396674791261" y2="513.1139586735062"
        style="stroke: #999999; stroke-width: 1px;"></line>
  <line x1="649.3521493882002" y1="477.11546189567525" x2="670.0101126267512" y2="468.7592130114995"
        style="stroke: #999999; stroke-width: 1px;"></line>
  <line x1="642.5429012177916" y1="352.3832406741456" x2="590.7664112996091" y2="284.40535299089464"
        style="stroke: #999999; stroke-width: 1px;"></line>
  <line x1="642.5429012177916" y1="352.3832406741456" x2="642.8340972736298" y2="280.8042274142735"
        style="stroke: #999999; stroke-width: 1px;"></line>
  <line x1="642.5429012177916" y1="352.3832406741456" x2="675.006358175018" y2="306.7825361484808"
        style="stroke: #999999; stroke-width: 1px;"></line>
  <line x1="642.5429012177916" y1="352.3832406741456" x2="662.8229769350453" y2="344.43928325066094"
        style="stroke: #999999; stroke-width: 1px;"></line>
  <line x1="642.5429012177916" y1="352.3832406741456" x2="656.9422870929179" y2="330.8330474939288"
        style="stroke: #999999; stroke-width: 1px;"></line>
  <line x1="642.5429012177916" y1="352.3832406741456" x2="678.4649007068311" y2="367.8090842423585"
        style="stroke: #999999; stroke-width: 1px;"></line>
  <line x1="642.5429012177916" y1="352.3832406741456" x2="553.566872115079" y2="369.0309503193291"
        style="stroke: #999999; stroke-width: 1px;"></line>
  <line x1="642.5429012177916" y1="352.3832406741456" x2="641.9332543360259" y2="382.33306987912727"
        style="stroke: #999999; stroke-width: 1px;"></line>
  <line x1="642.5429012177916" y1="352.3832406741456" x2="728.2168326389404" y2="337.67689163160554"
        style="stroke: #999999; stroke-width: 1px;"></line>
  <line x1="642.5429012177916" y1="352.3832406741456" x2="649.3521493882002" y2="477.11546189567525"
        style="stroke: #999999; stroke-width: 1px;"></line>
  <circle r="4.5" cx="559.8996419060261" cy="214.11264278985843" style="fill: #3182bd; stroke: #000000;"></circle>
  <circle r="4.5" cx="584.5123091127673" cy="207.92782457730183" style="fill: #3182bd; stroke: #000000;"></circle>
  <circle r="4.5" cx="574.8405069618403" cy="205.48956957799675" style="fill: #3182bd; stroke: #000000;"></circle>
  <circle r="4.5" cx="564.9268528021439" cy="205.29084397470268" style="fill: #3182bd; stroke: #000000;"></circle>
  <circle r="4.5" cx="577.2315433485011" cy="237.17458415487823" style="fill: #6baed6; stroke: #000000;"></circle>
  <circle r="4.5" cx="532.2480647359881" cy="228.3503099905915" style="fill: #9ecae1; stroke: #000000;"></circle>
  <circle r="4.5" cx="542.4452611223596" cy="218.27185302524256" style="fill: #9ecae1; stroke: #000000;"></circle>
  <circle r="4.5" cx="531.1196033735127" cy="218.41673338048625" style="fill: #9ecae1; stroke: #000000;"></circle>
  <circle r="4.5" cx="522.0365073464804" cy="229.98368936247132" style="fill: #9ecae1; stroke: #000000;"></circle>
  <circle r="4.5" cx="521.1541602276172" cy="241.28103876295694" style="fill: #9ecae1; stroke: #000000;"></circle>
  <circle r="4.5" cx="551.9520547120079" cy="246.69502719294223" style="fill: #6baed6; stroke: #000000;"></circle>
  <circle r="4.5" cx="532.0904517736876" cy="255.53676911041566" style="fill: #c6dbef; stroke: #000000;"></circle>
  <circle r="4.5" cx="561.9180383637946" cy="265.13633763949554" style="fill: #6baed6; stroke: #000000;"></circle>
  <circle r="4.5" cx="590.7664112996091" cy="284.40535299089464" style="fill: #e6550d; stroke: #000000;"></circle>
  <circle r="4.5" cx="616.3422555091178" cy="268.99490077491936" style="fill: #fd8d3c; stroke: #000000;"></circle>
  <circle r="4.5" cx="617.2391606267367" cy="279.9694829469759" style="fill: #fd8d3c; stroke: #000000;"></circle>
  <circle r="4.5" cx="651.4801326499232" cy="200.65571310229427" style="fill: #fdae6b; stroke: #000000;"></circle>
  <circle r="4.5" cx="644.599856933087" cy="194.21111066271234" style="fill: #fdae6b; stroke: #000000;"></circle>
  <circle r="4.5" cx="637.3242985444535" cy="203.16505868306535" style="fill: #fdae6b; stroke: #000000;"></circle>
  <circle r="4.5" cx="657.9724975147644" cy="190.97701850072008" style="fill: #fdae6b; stroke: #000000;"></circle>
  <circle r="4.5" cx="672.7390358409385" cy="206.19438827872503" style="fill: #fdae6b; stroke: #000000;"></circle>
  <circle r="4.5" cx="683.7410826954467" cy="214.22124285145978" style="fill: #fdae6b; stroke: #000000;"></circle>
  <circle r="4.5" cx="663.9369267397436" cy="199.25644403546576" style="fill: #fdae6b; stroke: #000000;"></circle>
  <circle r="4.5" cx="673.4015380388282" cy="194.63162609072387" style="fill: #fdae6b; stroke: #000000;"></circle>
  <circle r="4.5" cx="682.7309884764873" cy="203.4952860427634" style="fill: #fdae6b; stroke: #000000;"></circle>
  <circle r="4.5" cx="655.5281889755148" cy="228.4796604841936" style="fill: #fd8d3c; stroke: #000000;"></circle>
  <circle r="4.5" cx="625.3109908487068" cy="249.8709694219654" style="fill: #fd8d3c; stroke: #000000;"></circle>
  <circle r="4.5" cx="665.2626192361765" cy="263.8173506291519" style="fill: #fd8d3c; stroke: #000000;"></circle>
  <circle r="4.5" cx="617.313704652798" cy="258.5694121391758" style="fill: #fd8d3c; stroke: #000000;"></circle>
  <circle r="4.5" cx="653.1308775590996" cy="257.4714077020817" style="fill: #fd8d3c; stroke: #000000;"></circle>
  <circle r="4.5" cx="627.1768489839941" cy="260.88009545549465" style="fill: #fd8d3c; stroke: #000000;"></circle>
  <circle r="4.5" cx="639.0293731781711" cy="255.51913842742115" style="fill: #fd8d3c; stroke: #000000;"></circle>
  <circle r="4.5" cx="648.633840569041" cy="248.17033518911524" style="fill: #fd8d3c; stroke: #000000;"></circle>
  <circle r="4.5" cx="662.7182459031375" cy="253.39316547336364" style="fill: #fd8d3c; stroke: #000000;"></circle>
  <circle r="4.5" cx="635.7192564714651" cy="246.06534800882878" style="fill: #fd8d3c; stroke: #000000;"></circle>
  <circle r="4.5" cx="642.8340972736298" cy="280.8042274142735" style="fill: #e6550d; stroke: #000000;"></circle>
  <circle r="4.5" cx="727.6511440890544" cy="236.1691447033964" style="fill: #fdd0a2; stroke: #000000;"></circle>
  <circle r="4.5" cx="738.4497489197963" cy="244.2916080327118" style="fill: #fdd0a2; stroke: #000000;"></circle>
  <circle r="4.5" cx="739.1541189453351" cy="255.65789558439283" style="fill: #fdd0a2; stroke: #000000;"></circle>
  <circle r="4.5" cx="728.5155462893016" cy="246.90199758757967" style="fill: #fdd0a2; stroke: #000000;"></circle>
  <circle r="4.5" cx="716.7224308619373" cy="237.4098792182117" style="fill: #fdd0a2; stroke: #000000;"></circle>
  <circle r="4.5" cx="709.226144821165" cy="267.60281856632747" style="fill: #31a354; stroke: #000000;"></circle>
  <circle r="4.5" cx="651.7509240395651" cy="301.59072287481035" style="fill: #31a354; stroke: #000000;"></circle>
  <circle r="4.5" cx="699.8762079147066" cy="296.81307963348047" style="fill: #31a354; stroke: #000000;"></circle>
  <circle r="4.5" cx="696.6477335047747" cy="286.44396450846824" style="fill: #31a354; stroke: #000000;"></circle>
  <circle r="4.5" cx="688.4024526299473" cy="280.3594312384389" style="fill: #31a354; stroke: #000000;"></circle>
  <circle r="4.5" cx="677.8172299011559" cy="281.02222600263286" style="fill: #31a354; stroke: #000000;"></circle>
  <circle r="4.5" cx="661.8504971105607" cy="288.28086506403093" style="fill: #31a354; stroke: #000000;"></circle>
  <circle r="4.5" cx="675.006358175018" cy="306.7825361484808" style="fill: #e6550d; stroke: #000000;"></circle>
  <circle r="4.5" cx="644.3580799650542" cy="326.6422045535624" style="fill: #74c476; stroke: #000000;"></circle>
  <circle r="4.5" cx="638.3850816896005" cy="337.5077523099864" style="fill: #74c476; stroke: #000000;"></circle>
  <circle r="4.5" cx="686.5986408883812" cy="338.0077883150614" style="fill: #74c476; stroke: #000000;"></circle>
  <circle r="4.5" cx="666.2022833440413" cy="366.39903453744586" style="fill: #74c476; stroke: #000000;"></circle>
  <circle r="4.5" cx="662.8229769350453" cy="344.43928325066094" style="fill: #e6550d; stroke: #000000;"></circle>
  <circle r="4.5" cx="680.0394284488684" cy="319.96130253387673" style="fill: #a1d99b; stroke: #000000;"></circle>
  <circle r="4.5" cx="656.9422870929179" cy="330.8330474939288" style="fill: #e6550d; stroke: #000000;"></circle>
  <circle r="4.5" cx="693.3212518301663" cy="397.3304606123935" style="fill: #c7e9c0; stroke: #000000;"></circle>
  <circle r="4.5" cx="707.3450053780241" cy="366.84993981869746" style="fill: #c7e9c0; stroke: #000000;"></circle>
  <circle r="4.5" cx="703.3948383936377" cy="393.6936805592248" style="fill: #c7e9c0; stroke: #000000;"></circle>
  <circle r="4.5" cx="701.3921158375542" cy="355.68440795736336" style="fill: #c7e9c0; stroke: #000000;"></circle>
  <circle r="4.5" cx="683.9357035529936" cy="394.05554321925433" style="fill: #c7e9c0; stroke: #000000;"></circle>
  <circle r="4.5" cx="704.8158281043018" cy="376.19588117509096" style="fill: #c7e9c0; stroke: #000000;"></circle>
  <circle r="4.5" cx="709.9809465222386" cy="384.71444928567774" style="fill: #c7e9c0; stroke: #000000;"></circle>
  <circle r="4.5" cx="696.3396085058228" cy="384.97798588245473" style="fill: #c7e9c0; stroke: #000000;"></circle>
  <circle r="4.5" cx="678.4649007068311" cy="367.8090842423585" style="fill: #e6550d; stroke: #000000;"></circle>
  <circle r="4.5" cx="579.088735529156" cy="378.6322766863832" style="fill: #756bb1; stroke: #000000;"></circle>
  <circle r="4.5" cx="536.041091539648" cy="352.71866893369236" style="fill: #756bb1; stroke: #000000;"></circle>
  <circle r="4.5" cx="578.9491428574245" cy="357.6135434281556" style="fill: #756bb1; stroke: #000000;"></circle>
  <circle r="4.5" cx="544.3668634971458" cy="390.9127739241597" style="fill: #756bb1; stroke: #000000;"></circle>
  <circle r="4.5" cx="563.2959488243685" cy="403.99741693840053" style="fill: #756bb1; stroke: #000000;"></circle>
  <circle r="4.5" cx="530.3546117299983" cy="333.3287752463155" style="fill: #756bb1; stroke: #000000;"></circle>
  <circle r="4.5" cx="552.2256119876947" cy="407.90658873522517" style="fill: #756bb1; stroke: #000000;"></circle>
  <circle r="4.5" cx="565.9547792907548" cy="335.482587287221" style="fill: #756bb1; stroke: #000000;"></circle>
  <circle r="4.5" cx="527.8740782465499" cy="373.98079981842034" style="fill: #756bb1; stroke: #000000;"></circle>
  <circle r="4.5" cx="535.227419322508" cy="394.8486900765111" style="fill: #756bb1; stroke: #000000;"></circle>
  <circle r="4.5" cx="549.2427548670973" cy="345.3242719959963" style="fill: #756bb1; stroke: #000000;"></circle>
  <circle r="4.5" cx="575.6607669878548" cy="345.1534073310997" style="fill: #756bb1; stroke: #000000;"></circle>
  <circle r="4.5" cx="559.4868185207681" cy="341.6881103569981" style="fill: #756bb1; stroke: #000000;"></circle>
  <circle r="4.5" cx="535.1810585361766" cy="342.1157186033083" style="fill: #756bb1; stroke: #000000;"></circle>
  <circle r="4.5" cx="553.1908854198019" cy="397.72079758391425" style="fill: #756bb1; stroke: #000000;"></circle>
  <circle r="4.5" cx="573.5397672604909" cy="386.41109198099406" style="fill: #756bb1; stroke: #000000;"></circle>
  <circle r="4.5" cx="525.3386931124201" cy="353.33806739242385" style="fill: #756bb1; stroke: #000000;"></circle>
  <circle r="4.5" cx="572.4687102726044" cy="396.5300102196343" style="fill: #756bb1; stroke: #000000;"></circle>
  <circle r="4.5" cx="501.21892330275654" cy="427.2237698835793" style="fill: #9e9ac8; stroke: #000000;"></circle>
  <circle r="4.5" cx="486.4881588078667" cy="364.18418251084785" style="fill: #9e9ac8; stroke: #000000;"></circle>
  <circle r="4.5" cx="495.50225789738795" cy="355.59690504413527" style="fill: #9e9ac8; stroke: #000000;"></circle>
  <circle r="4.5" cx="481.55487188775646" cy="425.0593221224195" style="fill: #9e9ac8; stroke: #000000;"></circle>
  <circle r="4.5" cx="477.83502721707004" cy="386.408195635372" style="fill: #9e9ac8; stroke: #000000;"></circle>
  <circle r="4.5" cx="501.0592929465035" cy="417.41889439632723" style="fill: #9e9ac8; stroke: #000000;"></circle>
  <circle r="4.5" cx="464.41244462672125" cy="358.22922844338814" style="fill: #9e9ac8; stroke: #000000;"></circle>
  <circle r="4.5" cx="472.7862681519337" cy="420.23282770329115" style="fill: #9e9ac8; stroke: #000000;"></circle>
  <circle r="4.5" cx="511.91229471009626" cy="411.4433056263253" style="fill: #9e9ac8; stroke: #000000;"></circle>
  <circle r="4.5" cx="480.85906510205314" cy="345.73677231197007" style="fill: #9e9ac8; stroke: #000000;"></circle>
  <circle r="4.5" cx="511.2654123759781" cy="421.6169105861086" style="fill: #9e9ac8; stroke: #000000;"></circle>
  <circle r="4.5" cx="491.483970508181" cy="427.14499905104714" style="fill: #9e9ac8; stroke: #000000;"></circle>
  <circle r="4.5" cx="498.016541937761" cy="408.3151840717304" style="fill: #9e9ac8; stroke: #000000;"></circle>
  <circle r="4.5" cx="486.64712229594727" cy="404.5986561502216" style="fill: #9e9ac8; stroke: #000000;"></circle>
  <circle r="4.5" cx="469.5908286503202" cy="375.5916700285271" style="fill: #9e9ac8; stroke: #000000;"></circle>
  <circle r="4.5" cx="479.0649711827603" cy="396.8823137227464" style="fill: #9e9ac8; stroke: #000000;"></circle>
  <circle r="4.5" cx="467.49731632375034" cy="395.7509400278126" style="fill: #9e9ac8; stroke: #000000;"></circle>
  <circle r="4.5" cx="471.82625744750703" cy="405.2084567357472" style="fill: #9e9ac8; stroke: #000000;"></circle>
  <circle r="4.5" cx="479.3897129229048" cy="374.3571439545056" style="fill: #9e9ac8; stroke: #000000;"></circle>
  <circle r="4.5" cx="467.048402677749" cy="385.39241962535647" style="fill: #9e9ac8; stroke: #000000;"></circle>
  <circle r="4.5" cx="473.98641771121123" cy="363.87816521503964" style="fill: #9e9ac8; stroke: #000000;"></circle>
  <circle r="4.5" cx="479.71875895878804" cy="412.5689666390374" style="fill: #9e9ac8; stroke: #000000;"></circle>
  <circle r="4.5" cx="491.44061378084865" cy="346.41986746397697" style="fill: #9e9ac8; stroke: #000000;"></circle>
  <circle r="4.5" cx="458.13226740796733" cy="375.11482698384464" style="fill: #9e9ac8; stroke: #000000;"></circle>
  <circle r="4.5" cx="472.0928032575854" cy="351.9596209481601" style="fill: #9e9ac8; stroke: #000000;"></circle>
  <circle r="4.5" cx="457.08377802217564" cy="394.4340504186443" style="fill: #9e9ac8; stroke: #000000;"></circle>
  <circle r="4.5" cx="456.9375611201182" cy="384.36212366085425" style="fill: #9e9ac8; stroke: #000000;"></circle>
  <circle r="4.5" cx="482.36739841809015" cy="355.3321826624258" style="fill: #9e9ac8; stroke: #000000;"></circle>
  <circle r="4.5" cx="460.65724426580607" cy="404.61119978765026" style="fill: #9e9ac8; stroke: #000000;"></circle>
  <circle r="4.5" cx="462.1709091369121" cy="367.01093125290106" style="fill: #9e9ac8; stroke: #000000;"></circle>
  <circle r="4.5" cx="466.0327108220812" cy="413.51770699404454" style="fill: #9e9ac8; stroke: #000000;"></circle>
  <circle r="4.5" cx="489.41978882343443" cy="416.93835221499074" style="fill: #9e9ac8; stroke: #000000;"></circle>
  <circle r="4.5" cx="503.7777833431148" cy="383.64603993437584" style="fill: #756bb1; stroke: #000000;"></circle>
  <circle r="4.5" cx="568.5116684434374" cy="350.451277934771" style="fill: #756bb1; stroke: #000000;"></circle>
  <circle r="4.5" cx="553.9497903902312" cy="331.2037013310972" style="fill: #756bb1; stroke: #000000;"></circle>
  <circle r="4.5" cx="531.217411596763" cy="384.6840970647562" style="fill: #756bb1; stroke: #000000;"></circle>
  <circle r="4.5" cx="526.4735189670378" cy="363.4848108217819" style="fill: #756bb1; stroke: #000000;"></circle>
  <circle r="4.5" cx="544.8026816881561" cy="336.9073553355505" style="fill: #756bb1; stroke: #000000;"></circle>
  <circle r="4.5" cx="524.5270420012337" cy="343.1471521094268" style="fill: #756bb1; stroke: #000000;"></circle>
  <circle r="4.5" cx="562.515736100789" cy="392.1867268889782" style="fill: #756bb1; stroke: #000000;"></circle>
  <circle r="4.5" cx="541.2150271374126" cy="328.6949071679803" style="fill: #756bb1; stroke: #000000;"></circle>
  <circle r="4.5" cx="542.7087262789632" cy="403.37436283375104" style="fill: #756bb1; stroke: #000000;"></circle>
  <circle r="4.5" cx="579.0011177408304" cy="367.97535246750783" style="fill: #756bb1; stroke: #000000;"></circle>
  <circle r="4.5" cx="553.566872115079" cy="369.0309503193291" style="fill: #e6550d; stroke: #000000;"></circle>
  <circle r="4.5" cx="644.9596522250417" cy="406.4562880571675" style="fill: #bcbddc; stroke: #000000;"></circle>
  <circle r="4.5" cx="619.3334829387718" cy="389.9903886957739" style="fill: #bcbddc; stroke: #000000;"></circle>
  <circle r="4.5" cx="623.527261989147" cy="369.37773533275316" style="fill: #bcbddc; stroke: #000000;"></circle>
  <circle r="4.5" cx="658.2354036120861" cy="403.26227715976864" style="fill: #bcbddc; stroke: #000000;"></circle>
  <circle r="4.5" cx="631.4632232928061" cy="412.70506915673724" style="fill: #bcbddc; stroke: #000000;"></circle>
  <circle r="4.5" cx="629.7861423868131" cy="401.5956424538775" style="fill: #bcbddc; stroke: #000000;"></circle>
  <circle r="4.5" cx="664.1825983681487" cy="395.1344286978108" style="fill: #bcbddc; stroke: #000000;"></circle>
  <circle r="4.5" cx="656.353417800994" cy="412.5541016029808" style="fill: #bcbddc; stroke: #000000;"></circle>
  <circle r="4.5" cx="621.1119290761718" cy="405.17512099231016" style="fill: #bcbddc; stroke: #000000;"></circle>
  <circle r="4.5" cx="642.7549966151821" cy="415.92221545097624" style="fill: #bcbddc; stroke: #000000;"></circle>
  <circle r="4.5" cx="641.9332543360259" cy="382.33306987912727" style="fill: #e6550d; stroke: #000000;"></circle>
  <circle r="4.5" cx="745.5480220602418" cy="356.86964489012365" style="fill: #dadaeb; stroke: #000000;"></circle>
  <circle r="4.5" cx="753.6538140868736" cy="338.86110903663985" style="fill: #dadaeb; stroke: #000000;"></circle>
  <circle r="4.5" cx="733.2873066772855" cy="308.2514886610952" style="fill: #dadaeb; stroke: #000000;"></circle>
  <circle r="4.5" cx="749.1041612382833" cy="367.032620529271" style="fill: #dadaeb; stroke: #000000;"></circle>
  <circle r="4.5" cx="751.3282682180377" cy="326.1305568440793" style="fill: #dadaeb; stroke: #000000;"></circle>
  <circle r="4.5" cx="742.1289995903608" cy="305.20123888289123" style="fill: #dadaeb; stroke: #000000;"></circle>
  <circle r="4.5" cx="813.0177342227206" cy="321.1950132014131" style="fill: #636363; stroke: #000000;"></circle>
  <circle r="4.5" cx="814.4300574229417" cy="332.34269004357645" style="fill: #636363; stroke: #000000;"></circle>
  <circle r="4.5" cx="777.3849530877902" cy="330.97000971051034" style="fill: #dadaeb; stroke: #000000;"></circle>
  <circle r="4.5" cx="724.541013463744" cy="313.3517496459382" style="fill: #dadaeb; stroke: #000000;"></circle>
  <circle r="4.5" cx="742.7848271869286" cy="317.4181819247696" style="fill: #dadaeb; stroke: #000000;"></circle>
  <circle r="4.5" cx="737.7316971327821" cy="364.38676308792833" style="fill: #dadaeb; stroke: #000000;"></circle>
  <circle r="4.5" cx="807.6432456337436" cy="371.0566647231982" style="fill: #969696; stroke: #000000;"></circle>
  <circle r="4.5" cx="814.319467368058" cy="362.0426854134618" style="fill: #969696; stroke: #000000;"></circle>
  <circle r="4.5" cx="813.6067589120881" cy="351.7415925551004" style="fill: #969696; stroke: #000000;"></circle>
  <circle r="4.5" cx="777.9144234171698" cy="352.57694771192797" style="fill: #dadaeb; stroke: #000000;"></circle>
  <circle r="4.5" cx="763.7301613537038" cy="338.16864663753165" style="fill: #dadaeb; stroke: #000000;"></circle>
  <circle r="4.5" cx="758.5854953210486" cy="361.18804228325007" style="fill: #dadaeb; stroke: #000000;"></circle>
  <circle r="4.5" cx="805.3481294688576" cy="301.6523273557662" style="fill: #bdbdbd; stroke: #000000;"></circle>
  <circle r="4.5" cx="788.8534559077432" cy="278.43218810999537" style="fill: #bdbdbd; stroke: #000000;"></circle>
  <circle r="4.5" cx="803.9009277195852" cy="291.58868760021255" style="fill: #bdbdbd; stroke: #000000;"></circle>
  <circle r="4.5" cx="797.4552504214445" cy="284.18324999395315" style="fill: #bdbdbd; stroke: #000000;"></circle>
  <circle r="4.5" cx="771.4770265666544" cy="307.97846241479084" style="fill: #dadaeb; stroke: #000000;"></circle>
  <circle r="4.5" cx="763.3371297610756" cy="349.67612313068196" style="fill: #dadaeb; stroke: #000000;"></circle>
  <circle r="4.5" cx="762.0878314477056" cy="327.12032039201546" style="fill: #dadaeb; stroke: #000000;"></circle>
  <circle r="4.5" cx="753.7697077687088" cy="350.92461720775543" style="fill: #dadaeb; stroke: #000000;"></circle>
  <circle r="4.5" cx="751.1109587392356" cy="309.1162830678878" style="fill: #dadaeb; stroke: #000000;"></circle>
  <circle r="4.5" cx="757.6638200315836" cy="317.3486676907285" style="fill: #dadaeb; stroke: #000000;"></circle>
  <circle r="4.5" cx="728.2168326389404" cy="337.67689163160554" style="fill: #e6550d; stroke: #000000;"></circle>
  <circle r="4.5" cx="591.0657512127696" cy="475.3019883666613" style="fill: #d9d9d9; stroke: #000000;"></circle>
  <circle r="4.5" cx="581.9552549265775" cy="497.17192998545744" style="fill: #d9d9d9; stroke: #000000;"></circle>
  <circle r="4.5" cx="582.4736726917996" cy="484.499478784472" style="fill: #d9d9d9; stroke: #000000;"></circle>
  <circle r="4.5" cx="591.1170028126382" cy="490.90878976646883" style="fill: #d9d9d9; stroke: #000000;"></circle>
  <circle r="4.5" cx="591.8514819307998" cy="503.3406915285059" style="fill: #d9d9d9; stroke: #000000;"></circle>
  <circle r="4.5" cx="615.4785253895944" cy="482.8317009464238" style="fill: #3182bd; stroke: #000000;"></circle>
  <circle r="4.5" cx="635.1751970944836" cy="557.1623418713261" style="fill: #6baed6; stroke: #000000;"></circle>
  <circle r="4.5" cx="628.0726894739562" cy="538.7433567989591" style="fill: #6baed6; stroke: #000000;"></circle>
  <circle r="4.5" cx="658.0853277950029" cy="545.0538148154665" style="fill: #6baed6; stroke: #000000;"></circle>
  <circle r="4.5" cx="644.039775135688" cy="561.5378085867515" style="fill: #6baed6; stroke: #000000;"></circle>
  <circle r="4.5" cx="648.1185597451342" cy="550.5046892722571" style="fill: #6baed6; stroke: #000000;"></circle>
  <circle r="4.5" cx="663.3963358509254" cy="554.297193700957" style="fill: #6baed6; stroke: #000000;"></circle>
  <circle r="4.5" cx="628.5002611392177" cy="549.1494383034358" style="fill: #6baed6; stroke: #000000;"></circle>
  <circle r="4.5" cx="654.4002454556721" cy="559.9852203531194" style="fill: #6baed6; stroke: #000000;"></circle>
  <circle r="4.5" cx="669.5046948035767" cy="543.8968946122071" style="fill: #6baed6; stroke: #000000;"></circle>
  <circle r="4.5" cx="672.113638643583" cy="532.3732131680141" style="fill: #6baed6; stroke: #000000;"></circle>
  <circle r="4.5" cx="638.8385180484083" cy="545.1943439284985" style="fill: #6baed6; stroke: #000000;"></circle>
  <circle r="4.5" cx="649.8632833076899" cy="521.6927428078088" style="fill: #3182bd; stroke: #000000;"></circle>
  <circle r="4.5" cx="585.444316178869" cy="560.2567279866748" style="fill: #31a354; stroke: #000000;"></circle>
  <circle r="4.5" cx="572.5301109640307" cy="552.4803090383442" style="fill: #31a354; stroke: #000000;"></circle>
  <circle r="4.5" cx="560.4541333172715" cy="533.2937790641947" style="fill: #31a354; stroke: #000000;"></circle>
  <circle r="4.5" cx="565.8400988179518" cy="540.926237428155" style="fill: #31a354; stroke: #000000;"></circle>
  <circle r="4.5" cx="585.6388548137284" cy="570.2884733829957" style="fill: #31a354; stroke: #000000;"></circle>
  <circle r="4.5" cx="526.976086689959" cy="571.6415509523662" style="fill: #9ecae1; stroke: #000000;"></circle>
  <circle r="4.5" cx="530.8618734452848" cy="582.9540559727111" style="fill: #9ecae1; stroke: #000000;"></circle>
  <circle r="4.5" cx="550.4114415463308" cy="596.8932903943385" style="fill: #9ecae1; stroke: #000000;"></circle>
  <circle r="4.5" cx="538.3442288231163" cy="591.3914098739798" style="fill: #9ecae1; stroke: #000000;"></circle>
  <circle r="4.5" cx="557.7274521649466" cy="567.1119840424128" style="fill: #31a354; stroke: #000000;"></circle>
  <circle r="4.5" cx="561.9121248482378" cy="549.4415201251675" style="fill: #31a354; stroke: #000000;"></circle>
  <circle r="4.5" cx="574.9202554849742" cy="562.9590131548958" style="fill: #31a354; stroke: #000000;"></circle>
  <circle r="4.5" cx="596.3366869094236" cy="566.9463123579669" style="fill: #31a354; stroke: #000000;"></circle>
  <circle r="4.5" cx="593.9435973599179" cy="533.7882897932848" style="fill: #3182bd; stroke: #000000;"></circle>
  <circle r="4.5" cx="607.5135942516166" cy="514.9314573422864" style="fill: #c6dbef; stroke: #000000;"></circle>
  <circle r="4.5" cx="608.9834175381013" cy="503.30744132551575" style="fill: #c6dbef; stroke: #000000;"></circle>
  <circle r="4.5" cx="615.2125088055689" cy="521.9020178236794" style="fill: #c6dbef; stroke: #000000;"></circle>
  <circle r="4.5" cx="627.4043718097709" cy="520.7523384491868" style="fill: #c6dbef; stroke: #000000;"></circle>
  <circle r="4.5" cx="632.0613941538925" cy="497.8829223963394" style="fill: #3182bd; stroke: #000000;"></circle>
  <circle r="4.5" cx="691.3228528171928" cy="479.0683170457361" style="fill: #e6550d; stroke: #000000;"></circle>
  <circle r="4.5" cx="691.5171541815307" cy="496.9591279133166" style="fill: #e6550d; stroke: #000000;"></circle>
  <circle r="4.5" cx="680.4811210098678" cy="510.4823330267783" style="fill: #e6550d; stroke: #000000;"></circle>
  <circle r="4.5" cx="669.1670839380729" cy="490.08295425694826" style="fill: #3182bd; stroke: #000000;"></circle>
  <circle r="4.5" cx="791.5452963457369" cy="490.8356046429409" style="fill: #fd8d3c; stroke: #000000;"></circle>
  <circle r="4.5" cx="791.8192316330314" cy="477.86159031330817" style="fill: #fd8d3c; stroke: #000000;"></circle>
  <circle r="4.5" cx="799.7455604635045" cy="486.11136528116594" style="fill: #fd8d3c; stroke: #000000;"></circle>
  <circle r="4.5" cx="760.1818996365354" cy="498.56235710294726" style="fill: #fdae6b; stroke: #000000;"></circle>
  <circle r="4.5" cx="753.8898911256118" cy="458.58484290252636" style="fill: #fdd0a2; stroke: #000000;"></circle>
  <circle r="4.5" cx="765.9640010903308" cy="457.6036538232695" style="fill: #fdd0a2; stroke: #000000;"></circle>
  <circle r="4.5" cx="768.3734069414176" cy="468.1115066976539" style="fill: #fdd0a2; stroke: #000000;"></circle>
  <circle r="4.5" cx="774.9222762760342" cy="477.90731759679903" style="fill: #fdd0a2; stroke: #000000;"></circle>
  <circle r="4.5" cx="778.0800216869095" cy="464.61593800004897" style="fill: #fdd0a2; stroke: #000000;"></circle>
  <circle r="4.5" cx="746.8913432023389" cy="484.6249418024192" style="fill: #fdae6b; stroke: #000000;"></circle>
  <circle r="4.5" cx="745.1933447740544" cy="581.5626778743119" style="fill: #31a354; stroke: #000000;"></circle>
  <circle r="4.5" cx="737.1298234067965" cy="588.2098537242107" style="fill: #31a354; stroke: #000000;"></circle>
  <circle r="4.5" cx="728.0585423908997" cy="583.7979319484624" style="fill: #31a354; stroke: #000000;"></circle>
  <circle r="4.5" cx="730.4730409620208" cy="552.8418486189039" style="fill: #fdae6b; stroke: #000000;"></circle>
  <circle r="4.5" cx="725.8020494408128" cy="489.89198981958685" style="fill: #fdae6b; stroke: #000000;"></circle>
  <circle r="4.5" cx="697.4985114845682" cy="581.7623849682657" style="fill: #74c476; stroke: #000000;"></circle>
  <circle r="4.5" cx="704.3191876553178" cy="589.5387578849234" style="fill: #74c476; stroke: #000000;"></circle>
  <circle r="4.5" cx="713.7925177433955" cy="586.6258724716192" style="fill: #74c476; stroke: #000000;"></circle>
  <circle r="4.5" cx="712.7411870344307" cy="553.7790740478526" style="fill: #fdae6b; stroke: #000000;"></circle>
  <circle r="4.5" cx="780.654947348672" cy="512.2988958323147" style="fill: #a1d99b; stroke: #000000;"></circle>
  <circle r="4.5" cx="779.6905367309729" cy="553.1931041412653" style="fill: #a1d99b; stroke: #000000;"></circle>
  <circle r="4.5" cx="791.0787170028843" cy="535.5238890152415" style="fill: #a1d99b; stroke: #000000;"></circle>
  <circle r="4.5" cx="757.7528616372684" cy="559.4838598916178" style="fill: #a1d99b; stroke: #000000;"></circle>
  <circle r="4.5" cx="791.4868029524691" cy="556.224090066715" style="fill: #a1d99b; stroke: #000000;"></circle>
  <circle r="4.5" cx="770.9959841173385" cy="566.243707658158" style="fill: #a1d99b; stroke: #000000;"></circle>
  <circle r="4.5" cx="799.3467911292581" cy="518.7268427394149" style="fill: #a1d99b; stroke: #000000;"></circle>
  <circle r="4.5" cx="798.1496331459912" cy="547.3182743553067" style="fill: #a1d99b; stroke: #000000;"></circle>
  <circle r="4.5" cx="787.1332197465188" cy="545.3419120122146" style="fill: #a1d99b; stroke: #000000;"></circle>
  <circle r="4.5" cx="788.8584322504781" cy="525.3770143880823" style="fill: #a1d99b; stroke: #000000;"></circle>
  <circle r="4.5" cx="801.668825345785" cy="527.8922136759222" style="fill: #a1d99b; stroke: #000000;"></circle>
  <circle r="4.5" cx="801.9376255227463" cy="537.6230482606259" style="fill: #a1d99b; stroke: #000000;"></circle>
  <circle r="4.5" cx="790.6289905406893" cy="514.0953735547649" style="fill: #a1d99b; stroke: #000000;"></circle>
  <circle r="4.5" cx="768.4927763102785" cy="557.3914776421001" style="fill: #a1d99b; stroke: #000000;"></circle>
  <circle r="4.5" cx="782.5822307860587" cy="562.9528546592462" style="fill: #a1d99b; stroke: #000000;"></circle>
  <circle r="4.5" cx="763.4671186587188" cy="531.9091660622007" style="fill: #fdae6b; stroke: #000000;"></circle>
  <circle r="4.5" cx="744.5701533367167" cy="520.3361721851142" style="fill: #fdae6b; stroke: #000000;"></circle>
  <circle r="4.5" cx="723.0080067963181" cy="537.7399261146377" style="fill: #fdae6b; stroke: #000000;"></circle>
  <circle r="4.5" cx="742.2208935793229" cy="502.47537366874946" style="fill: #fdae6b; stroke: #000000;"></circle>
  <circle r="4.5" cx="735.9192003878135" cy="533.7708788767068" style="fill: #fdae6b; stroke: #000000;"></circle>
  <circle r="4.5" cx="709.8892522184497" cy="534.106004457177" style="fill: #fdae6b; stroke: #000000;"></circle>
  <circle r="4.5" cx="722.2396674791261" cy="513.1139586735062" style="fill: #3182bd; stroke: #000000;"></circle>
  <circle r="4.5" cx="670.0101126267512" cy="468.7592130114995" style="fill: #3182bd; stroke: #000000;"></circle>
  <circle r="4.5" cx="649.3521493882002" cy="477.11546189567525" style="fill: #e6550d; stroke: #000000;"></circle>
  <circle r="4.5" cx="642.5429012177916" cy="352.3832406741456" style="fill: #c7e9c0; stroke: #000000;"></circle>
</svg>