<?xml version="1.0" encoding="UTF-8" standalone="no"?>
<svg xmlns="http://www.w3.org/2000/svg" width="652.5" height="664.765625">
  <style>
    text {
    font-weight: 300;
    font-family: "Helvetica Neue", Helvetica, Arial, sans-serf;
    font-size: 14px;
    fill: white;
    }

    .node rect {
    stroke-width: 2px;
    stroke: #FFF;
    fill: #000;
    }

    #node-CLOSED rect {
    fill: #f77;
    }

    #node-ESTAB rect {
    fill: #7f7;
    }

    .edgeLabel rect {
    fill: #000;
    }

    .edgePath path {
    stroke: #FFF;
    stroke-width: 1.5px;
    fill: none;
    }
  </style>
  <g transform="translate(20,20)">
    <g class="edgePaths">
      <g class="edgePath enter">
        <path marker-end="url(#arrowhead)"
              d="M268.0307033866766,36.984375L264.2158822183972,40.89973958333333C260.40106105011785,44.815104166666664,252.77141871355911,52.64583333333333,250.78969343133605,60.47656249999999C248.807968149113,68.30729166666666,252.47415992122563,76.13802083333333,254.30725580728196,80.05338541666667L256.1403516933383,83.96875"
              style="opacity: 1;"></path>
      </g>
      <g class="edgePath enter">
        <path marker-end="url(#arrowhead)"
              d="M243.91775213993301,120.953125L239.54707645866932,125.0364800347222C235.1764007774056,129.11983506944443,226.4350494148782,137.28654513888887,222.03484214117353,155.0287109375C217.63463486746883,172.77087673611112,217.5755716825869,200.08849826388888,220.17435181739236,217.83066406249998C222.7731319521978,235.5728298611111,228.02975540669064,243.73953993055557,230.65806713393704,247.82289496527778L233.28637886118347,251.90625"
              style="opacity: 1;"></path>
      </g>
      <g class="edgePath enter">
        <path marker-end="url(#arrowhead)"
              d="M287.3024748790473,120.953125L291.896580371542,124.86848958333331C296.4906858640367,128.78385416666666,305.67889684902616,136.61458333333331,314.02545744944797,144.4453125C322.3720180498698,152.27604166666666,329.87692826572385,160.10677083333331,333.6293833736509,164.02213541666666L337.381838481578,167.9375"
              style="opacity: 1;"></path>
      </g>
      <g class="edgePath enter">
        <path marker-end="url(#arrowhead)"
              d="M274.8596483066617,83.96875L276.7918304568292,80.05338541666666C278.72401260699667,76.13802083333333,282.58837690733156,68.30729166666666,284.57010218955463,60.47656249999999C286.55182747177764,52.64583333333333,286.6509137358888,44.815104166666664,286.7004568679444,40.89973958333333L286.75,36.984375"
              style="opacity: 1;"></path>
      </g>
      <g class="edgePath enter">
        <path marker-end="url(#arrowhead)"
              d="M229.8728600669892,288.890625L226.507035675888,292.9739800347222C223.1412112847868,297.05733506944443,216.40956250258444,305.22404513888887,213.02236656432203,322.96621093749997C209.63517062605962,340.7083767361111,209.59242753173717,368.0259982638889,211.6759590931646,385.7681640625C213.75949065459207,403.51032986111113,217.96929687176942,411.67703993055557,220.0741999803581,415.7603949652777L222.1791030889468,419.84375"
              style="opacity: 1;"></path>
      </g>
      <g class="edgePath enter">
        <path marker-end="url(#arrowhead)"
              d="M263.7878209899516,288.890625L267.49423012808586,292.8059895833333C271.20063926622004,296.72135416666663,278.6134575424885,304.5520833333333,287.7760226708845,312.3828125C296.93858779928047,320.21354166666663,307.85089977980397,328.0442708333333,313.3070557700658,331.9596354166667L318.7632117603275,335.875"
              style="opacity: 1;"></path>
      </g>
      <g class="edgePath enter">
        <path marker-end="url(#arrowhead)"
              d="M329.0132117603275,204.921875L323.53315849460364,208.8372395833333C318.05310522887976,212.75260416666663,307.09299869743205,220.58333333333331,296.97454255055203,228.4140625C286.85608640367195,236.24479166666666,277.5792806413596,244.07552083333331,272.9408777602035,247.99088541666666L268.3024748790473,251.90625"
              style="opacity: 1;"></path>
      </g>
      <g class="edgePath enter">
        <path marker-end="url(#arrowhead)"
              d="M372.94850204689243,204.921875L376.5428077058264,209.0052300347222C380.13711336476035,213.08858506944443,387.3257246826283,221.25529513888887,390.90409882458755,238.9974609375C394.4824729665467,256.7396267361111,394.4506099325972,284.0572482638889,389.9004132551792,301.79941406250003C385.35021657776116,319.54157986111113,376.28168625687465,327.70828993055557,371.74742109643137,331.7916449652778L367.2131559359881,335.875"
              style="opacity: 1;"></path>
      </g>
      <g class="edgePath enter">
        <path marker-end="url(#arrowhead)"
              d="M364.2495347971716,167.9375L366.0003041909606,163.8524325007781C367.75107358474963,159.7673650015562,371.2526123723277,151.59723000311234,372.8936608361246,133.85163927550187C374.5347092999215,116.10604854789138,374.31526743993714,88.78500209111422,365.98124224661956,70.94180088702147C357.6472170533019,53.09859968292872,341.19860852665096,44.73324373152038,332.9743042633255,40.55056575581621L324.75,36.36788778011204"
              style="opacity: 1;"></path>
      </g>
      <g class="edgePath enter">
        <path marker-end="url(#arrowhead)"
              d="M312.75,372.83454145189L306.03661592079146,376.7539414867912C299.3232318415829,380.6733415216924,285.89646368316585,388.5121415914948,275.4444338481578,396.3470096828465C264.9924040131497,404.18187777419814,257.5151125015507,412.01281388709907,253.77646674575115,415.9282819435495L250.03782098995163,419.84375"
              style="opacity: 1;"></path>
      </g>
      <g class="edgePath enter">
        <path marker-end="url(#arrowhead)"
              d="M376.75,368.4721743766404L387.028125,373.10045906126965C397.30625,377.7287437458989,417.8625,386.98531311515745,428.4041666666667,395.54724238571737C438.9458333333333,404.10917165627734,439.47291666666666,411.97646082813867,439.7364583333333,415.9101054140693L440,419.84375"
              style="opacity: 1;"></path>
      </g>
      <g class="edgePath enter">
        <path marker-end="url(#arrowhead)"
              d="M203.12946594715297,456.828125L197.01467773074057,460.74348958333326C190.89988951432824,464.65885416666663,178.67031308150354,472.48958333333326,172.39873542364472,480.32031249999994C166.12715776578588,488.15104166666663,165.81357888289295,495.9817708333333,165.65678944144648,499.89713541666663L165.5,503.8125"
              style="opacity: 1;"></path>
      </g>
      <g class="edgePath enter">
        <path marker-end="url(#arrowhead)"
              d="M262.37053405284706,456.828125L268.4853222692594,460.74348958333326C274.60011048567173,464.65885416666663,286.82968691849646,472.48958333333326,293.1012645763553,480.32031249999994C299.3728422342141,488.15104166666663,299.68642111710705,495.9817708333333,299.84321055855355,499.89713541666663L300,503.8125"
              style="opacity: 1;"></path>
      </g>
      <g class="edgePath enter">
        <path marker-end="url(#arrowhead)"
              d="M440,456.828125L440.14804653578955,460.74348958333326C440.2960930715792,464.65885416666663,440.5921861431584,472.48958333333326,446.51404757474256,480.32031249999994C452.4359090063267,488.15104166666663,463.9835387979158,495.9817708333333,469.75735369371034,499.89713541666663L475.531168589505,503.8125"
              style="opacity: 1;"></path>
      </g>
      <g class="edgePath enter">
        <path marker-end="url(#arrowhead)"
              d="M165.5,540.796875L165.5,544.7122395833334C165.5,548.6276041666666,165.5,556.4583333333333,165.5,564.2890625C165.5,572.1197916666666,165.5,579.9505208333333,165.5,583.8658854166666L165.5,587.78125"
              style="opacity: 1;"></path>
      </g>
      <g class="edgePath enter">
        <path marker-end="url(#arrowhead)"
              d="M300,540.796875L299.6229166666667,544.7320625919688C299.24583333333334,548.6672501839374,298.4916666666667,556.5376253678749,283.40833333333336,565.1612748799566C268.325,573.7849243920384,238.9125,583.1618482322646,224.20624999999998,587.8503101523777L209.5,592.5387720724907"
              style="opacity: 1;"></path>
      </g>
      <g class="edgePath enter">
        <path marker-end="url(#arrowhead)"
              d="M531.468831410495,503.8125L536.5203807943597,498.76060499058383C541.5719301782243,493.7087099811676,551.6750289459537,483.6049199623352,556.1523593536781,410.7454658810028C560.6296897614026,337.8860117996704,559.481251809122,202.27089365583805,519.9765638568415,127.38486935028249C480.471875904561,52.498845044726934,402.6109379522805,38.34191457744821,363.6804689761402,31.26344934380885L324.75,24.18498411016949"
              style="opacity: 1;"></path>
      </g>
      <g class="edgePath enter">
        <path marker-end="url(#arrowhead)"
              d="M121.5,590.8791666666667L109.82013888888889,585.0974726839859C98.14027777777778,579.3157787013049,74.78055555555557,567.7523907359432,63.45416666666667,480.62879009697036C52.12777777777778,393.5051894579975,52.834722222222226,230.82137614541355,85.72291666666666,142.30742075057572C118.61111111111111,53.793465355737865,183.68055555555554,39.449367878646136,216.21527777777777,32.27731914010027L248.75,25.105270401554403"
              style="opacity: 1;"></path>
      </g>
    </g>
    <g class="edgeLabels">
      <g class="edgeLabel enter" transform="translate(244.25,60.4765625)" style="opacity: 1;">
        <rect rx="5" ry="5" x="-16" y="-8.4921875" width="32" height="16.984375"></rect>
        <g transform="translate(-16,-8.4921875)">
          <text text-anchor="left">
            <tspan dy="1em" x="1">open</tspan>
          </text>
        </g>
      </g>
      <g class="edgeLabel enter" transform="translate(216.5,186.4296875)" style="opacity: 1;">
        <rect rx="5" ry="5" x="-25" y="-8.4921875" width="50" height="16.984375"></rect>
        <g transform="translate(-25,-8.4921875)">
          <text text-anchor="left">
            <tspan dy="1em" x="1">rcv SYN</tspan>
          </text>
        </g>
      </g>
      <g class="edgeLabel enter" transform="translate(315,144.4453125)" style="opacity: 1;">
        <rect rx="5" ry="5" x="-15.5" y="-8.4921875" width="31" height="16.984375"></rect>
        <g transform="translate(-15.5,-8.4921875)">
          <text text-anchor="left">
            <tspan dy="1em" x="1">send</tspan>
          </text>
        </g>
      </g>
      <g class="edgeLabel enter" transform="translate(286.75,60.4765625)" style="opacity: 1;">
        <rect rx="5" ry="5" x="-16.5" y="-8.4921875" width="33" height="16.984375"></rect>
        <g transform="translate(-16.5,-8.4921875)">
          <text text-anchor="left">
            <tspan dy="1em" x="1">close</tspan>
          </text>
        </g>
      </g>
      <g class="edgeLabel enter" transform="translate(208.75,354.3671875)" style="opacity: 1;">
        <rect rx="5" ry="5" x="-16.5" y="-8.4921875" width="33" height="16.984375"></rect>
        <g transform="translate(-16.5,-8.4921875)">
          <text text-anchor="left">
            <tspan dy="1em" x="1">close</tspan>
          </text>
        </g>
      </g>
      <g class="edgeLabel enter" transform="translate(285.75,312.3828125)" style="opacity: 1;">
        <rect rx="5" ry="5" x="-49" y="-8.4921875" width="98" height="16.984375"></rect>
        <g transform="translate(-49,-8.4921875)">
          <text text-anchor="left">
            <tspan dy="1em" x="1">rcv ACK of SYN</tspan>
          </text>
        </g>
      </g>
      <g class="edgeLabel enter" transform="translate(296,228.4140625)" style="opacity: 1;">
        <rect rx="5" ry="5" x="-25" y="-8.4921875" width="50" height="16.984375"></rect>
        <g transform="translate(-25,-8.4921875)">
          <text text-anchor="left">
            <tspan dy="1em" x="1">rcv SYN</tspan>
          </text>
        </g>
      </g>
      <g class="edgeLabel enter" transform="translate(395.75,270.3984375)" style="opacity: 1;">
        <rect rx="5" ry="5" x="-43" y="-8.4921875" width="86" height="16.984375"></rect>
        <g transform="translate(-43,-8.4921875)">
          <text text-anchor="left">
            <tspan dy="1em" x="1">rcv SYN, ACK</tspan>
          </text>
        </g>
      </g>
      <g class="edgeLabel enter" transform="translate(376,102.4609375)" style="opacity: 1;">
        <rect rx="5" ry="5" x="-16.5" y="-8.4921875" width="33" height="16.984375"></rect>
        <g transform="translate(-16.5,-8.4921875)">
          <text text-anchor="left">
            <tspan dy="1em" x="1">close</tspan>
          </text>
        </g>
      </g>
      <g class="edgeLabel enter" transform="translate(272,396.3515625)" style="opacity: 1;">
        <rect rx="5" ry="5" x="-16.5" y="-8.4921875" width="33" height="16.984375"></rect>
        <g transform="translate(-16.5,-8.4921875)">
          <text text-anchor="left">
            <tspan dy="1em" x="1">close</tspan>
          </text>
        </g>
      </g>
      <g class="edgeLabel enter" transform="translate(440,396.3515625)" style="opacity: 1;">
        <rect rx="5" ry="5" x="-21.5" y="-8.4921875" width="43" height="16.984375"></rect>
        <g transform="translate(-21.5,-8.4921875)">
          <text text-anchor="left">
            <tspan dy="1em" x="1">rcv FIN</tspan>
          </text>
        </g>
      </g>
      <g class="edgeLabel enter" transform="translate(165.5,480.3203125)" style="opacity: 1;">
        <rect rx="5" ry="5" x="-45.5" y="-8.4921875" width="91" height="16.984375"></rect>
        <g transform="translate(-45.5,-8.4921875)">
          <text text-anchor="left">
            <tspan dy="1em" x="1">rcv ACK of FIN</tspan>
          </text>
        </g>
      </g>
      <g class="edgeLabel enter" transform="translate(300,480.3203125)" style="opacity: 1;">
        <rect rx="5" ry="5" x="-21.5" y="-8.4921875" width="43" height="16.984375"></rect>
        <g transform="translate(-21.5,-8.4921875)">
          <text text-anchor="left">
            <tspan dy="1em" x="1">rcv FIN</tspan>
          </text>
        </g>
      </g>
      <g class="edgeLabel enter" transform="translate(440,480.3203125)" style="opacity: 1;">
        <rect rx="5" ry="5" x="-16.5" y="-8.4921875" width="33" height="16.984375"></rect>
        <g transform="translate(-16.5,-8.4921875)">
          <text text-anchor="left">
            <tspan dy="1em" x="1">close</tspan>
          </text>
        </g>
      </g>
      <g class="edgeLabel enter" transform="translate(165.5,564.2890625)" style="opacity: 1;">
        <rect rx="5" ry="5" x="-21.5" y="-8.4921875" width="43" height="16.984375"></rect>
        <g transform="translate(-21.5,-8.4921875)">
          <text text-anchor="left">
            <tspan dy="1em" x="1">rcv FIN</tspan>
          </text>
        </g>
      </g>
      <g class="edgeLabel enter" transform="translate(300,564.2890625)" style="opacity: 1;">
        <rect rx="5" ry="5" x="-45.5" y="-8.4921875" width="91" height="16.984375"></rect>
        <g transform="translate(-45.5,-8.4921875)">
          <text text-anchor="left">
            <tspan dy="1em" x="1">rcv ACK of FIN</tspan>
          </text>
        </g>
      </g>
      <g class="edgeLabel enter" transform="translate(567,270.3984375)" style="opacity: 1;">
        <rect rx="5" ry="5" x="-45.5" y="-8.4921875" width="91" height="16.984375"></rect>
        <g transform="translate(-45.5,-8.4921875)">
          <text text-anchor="left">
            <tspan dy="1em" x="1">rcv ACK of FIN</tspan>
          </text>
        </g>
      </g>
      <g class="edgeLabel enter" transform="translate(45.5,312.3828125)" style="opacity: 1;">
        <rect rx="5" ry="5" x="-45.5" y="-8.4921875" width="91" height="16.984375"></rect>
        <g transform="translate(-45.5,-8.4921875)">
          <text text-anchor="left">
            <tspan dy="1em" x="1">timeout=2MSL</tspan>
          </text>
        </g>
      </g>
    </g>
    <g class="nodes">
      <g class="node enter" id="node-CLOSED" transform="translate(286.75,18.4921875)" style="opacity: 1;">
        <rect rx="5" ry="5" x="-38" y="-18.4921875" width="76" height="36.984375"></rect>
        <g transform="translate(-28,-8.4921875)">
          <text text-anchor="left">
            <tspan dy="1em" x="1">CLOSED</tspan>
          </text>
        </g>
      </g>
      <g class="node enter" id="node-LISTEN" transform="translate(265.5,102.4609375)" style="opacity: 1;">
        <rect rx="5" ry="5" x="-33.5" y="-18.4921875" width="67" height="36.984375"></rect>
        <g transform="translate(-23.5,-8.4921875)">
          <text text-anchor="left">
            <tspan dy="1em" x="1">LISTEN</tspan>
          </text>
        </g>
      </g>
      <g class="node enter" id="node-SYN RCVD" transform="translate(246.5,270.3984375)" style="opacity: 1;">
        <rect rx="5" ry="5" x="-45" y="-18.4921875" width="90" height="36.984375"></rect>
        <g transform="translate(-35,-8.4921875)">
          <text text-anchor="left">
            <tspan dy="1em" x="1">SYN RCVD</tspan>
          </text>
        </g>
      </g>
      <g class="node enter" id="node-SYN SENT" transform="translate(355,186.4296875)" style="opacity: 1;">
        <rect rx="5" ry="5" x="-44" y="-18.4921875" width="88" height="36.984375"></rect>
        <g transform="translate(-34,-8.4921875)">
          <text text-anchor="left">
            <tspan dy="1em" x="1">SYN SENT</tspan>
          </text>
        </g>
      </g>
      <g class="node enter" id="node-ESTAB" transform="translate(344.75,354.3671875)" style="opacity: 1;">
        <rect rx="5" ry="5" x="-32" y="-18.4921875" width="64" height="36.984375"></rect>
        <g transform="translate(-22,-8.4921875)">
          <text text-anchor="left">
            <tspan dy="1em" x="1">ESTAB</tspan>
          </text>
        </g>
      </g>
      <g class="node enter" id="node-FINWAIT-1" transform="translate(232.75,438.3359375)" style="opacity: 1;">
        <rect rx="5" ry="5" x="-44" y="-18.4921875" width="88" height="36.984375"></rect>
        <g transform="translate(-34,-8.4921875)">
          <text text-anchor="left">
            <tspan dy="1em" x="1">FINWAIT-1</tspan>
          </text>
        </g>
      </g>
      <g class="node enter" id="node-CLOSE WAIT" transform="translate(440,438.3359375)" style="opacity: 1;">
        <rect rx="5" ry="5" x="-51.5" y="-18.4921875" width="103" height="36.984375"></rect>
        <g transform="translate(-41.5,-8.4921875)">
          <text text-anchor="left">
            <tspan dy="1em" x="1">CLOSE WAIT</tspan>
          </text>
        </g>
      </g>
      <g class="node enter" id="node-FINWAIT-2" transform="translate(165.5,522.3046875)" style="opacity: 1;">
        <rect rx="5" ry="5" x="-44" y="-18.4921875" width="88" height="36.984375"></rect>
        <g transform="translate(-34,-8.4921875)">
          <text text-anchor="left">
            <tspan dy="1em" x="1">FINWAIT-2</tspan>
          </text>
        </g>
      </g>
      <g class="node enter" id="node-CLOSING" transform="translate(300,522.3046875)" style="opacity: 1;">
        <rect rx="5" ry="5" x="-40.5" y="-18.4921875" width="81" height="36.984375"></rect>
        <g transform="translate(-30.5,-8.4921875)">
          <text text-anchor="left">
            <tspan dy="1em" x="1">CLOSING</tspan>
          </text>
        </g>
      </g>
      <g class="node enter" id="node-LAST-ACK" transform="translate(503.5,522.3046875)" style="opacity: 1;">
        <rect rx="5" ry="5" x="-44" y="-18.4921875" width="88" height="36.984375"></rect>
        <g transform="translate(-34,-8.4921875)">
          <text text-anchor="left">
            <tspan dy="1em" x="1">LAST-ACK</tspan>
          </text>
        </g>
      </g>
      <g class="node enter" id="node-TIME WAIT" transform="translate(165.5,606.2734375)" style="opacity: 1;">
        <rect rx="5" ry="5" x="-44" y="-18.4921875" width="88" height="36.984375"></rect>
        <g transform="translate(-34,-8.4921875)">
          <text text-anchor="left">
            <tspan dy="1em" x="1">TIME WAIT</tspan>
          </text>
        </g>
      </g>
    </g>
    <defs>
      <marker id="arrowhead" viewBox="0 0 10 10" refX="8" refY="5" markerUnits="strokewidth" markerWidth="8"
              markerHeight="5" orient="auto" style="fill: #333">
        <path d="M 0 0 L 10 5 L 0 10 z"></path>
      </marker>
    </defs>
  </g>
</svg>